<?xml version="1.0" encoding="UTF-8" standalone="no"?>
<!-- Created with Inkscape (http://www.inkscape.org/) -->

<svg
   xmlns:dc="http://purl.org/dc/elements/1.1/"
   xmlns:cc="http://creativecommons.org/ns#"
   xmlns:rdf="http://www.w3.org/1999/02/22-rdf-syntax-ns#"
   xmlns:svg="http://www.w3.org/2000/svg"
   xmlns="http://www.w3.org/2000/svg"
   xmlns:sodipodi="http://sodipodi.sourceforge.net/DTD/sodipodi-0.dtd"
   xmlns:inkscape="http://www.inkscape.org/namespaces/inkscape"
   version="1.1"
   id="svg2"
   xml:space="preserve"
   width="469.90982"
   height="480.60892"
   viewBox="0 0 469.90983 480.60891"
   sodipodi:docname="Coconut_Island.svg"
   inkscape:version="0.92.4 (5da689c313, 2019-01-14)"><metadata
     id="metadata8"><rdf:RDF><cc:Work
         rdf:about=""><dc:format>image/svg+xml</dc:format><dc:type
           rdf:resource="http://purl.org/dc/dcmitype/StillImage" /><dc:title></dc:title></cc:Work></rdf:RDF></metadata><defs
     id="defs6"><clipPath
       clipPathUnits="userSpaceOnUse"
       id="clipPath18"><path
         d="M 0,1872 H 2272 V 0 H 0 Z"
         id="path16"
         inkscape:connector-curvature="0" /></clipPath></defs><sodipodi:namedview
     pagecolor="#1a1111"
     bordercolor="#666666"
     borderopacity="1"
     objecttolerance="10"
     gridtolerance="10"
     guidetolerance="10"
     inkscape:pageopacity="0.8"
     inkscape:pageshadow="2"
     inkscape:window-width="1920"
     inkscape:window-height="1017"
     id="namedview4"
     showgrid="false"
     inkscape:zoom="1.0697256"
     inkscape:cx="116.95066"
     inkscape:cy="265.72922"
     inkscape:window-x="-8"
     inkscape:window-y="-8"
     inkscape:window-maximized="1"
     inkscape:current-layer="g1228"
     inkscape:pagecheckerboard="true"
     inkscape:snap-global="false" /><g
     id="g10"
     inkscape:groupmode="layer"
     inkscape:label="Hammock Between Two Coconut Trees On The Beach"
     transform="matrix(1.3333333,0,0,-1.3333333,-541.1267,919.63262)"><g
       id="g12"
       transform="matrix(0.15831459,0,0,0.22017444,381.2582,328.9229)"><g
         id="g14"
         clip-path="url(#clipPath18)"
         transform="translate(150.31218,-54.040358)"><g
           id="g1228"
           transform="matrix(1,0,0,0.91019575,0,4.9937241)"><g
             transform="translate(2024.2114,391.5432)"
             id="g20"><path
               inkscape:connector-curvature="0"
               id="path22"
               style="fill:#4ec5d9;fill-opacity:1;fill-rule:nonzero;stroke:none"
               d="m 0,0 c -0.888,22.758 -9.998,47.613 -29.607,73.626 -55.306,73.37 -176.007,84.5 -259.781,98.188 -19.533,3.192 -39.117,6.052 -58.713,8.827 -23.957,3.392 -47.836,7.299 -71.805,10.6 -127.417,16.73 -256.133,19.025 -384.478,19.037 -9.933,0.001 -18.802,5.336 -23.87,13.25 -18.892,-3.779 -37.778,-7.57 -56.658,-11.35 -111.063,-22.233 -225.247,-44.131 -336.839,-24.727 -35.117,6.107 -70.875,16.286 -105.811,9.215 -12.986,-2.629 -25.374,-7.579 -38.136,-11.139 -9.622,-2.684 -19.415,-4.561 -29.289,-6.04 -7.218,7.523 -17.277,12.281 -28.279,12.12 -73.354,-1.07 -475.715,-43.354 -399.817,-182.662 30.547,-56.064 105.2,-28.272 148.675,-59.477 0.241,-0.173 0.484,-0.344 0.724,-0.518 -1.701,1.207 1.726,-1.49 1.938,-1.675 12.702,-11.064 19.224,-27.93 18.477,-45.257 -0.012,-0.283 -0.324,-3.411 -0.242,-3.195 -0.289,-1.72 -0.668,-3.425 -1.065,-5.123 -3.524,-15.095 -10.115,-28.701 -9.546,-44.621 2.094,-58.61 64.237,-86.482 110.339,-106.133 103.904,-44.289 214.025,-63.085 326.014,-71.431 119.76,-8.926 239.92,-10.701 359.675,-0.524 119.633,10.168 263.789,16.529 357.679,99.036 14.328,12.591 27.297,26.793 42.715,38.024 36.906,26.886 84.053,34.313 129.228,40.96 68.532,10.085 137.065,20.17 205.607,30.256 C -57.802,-109.688 2.451,-62.843 0,0" /></g><g
             transform="translate(1678.6793,281.546)"
             id="g24"><path
               inkscape:connector-curvature="0"
               id="path26"
               style="fill:#14b6e1;fill-opacity:1;fill-rule:nonzero;stroke:none"
               d="m 0,0 c 51.106,1.878 96.369,17.972 111.547,85.7 24.745,110.422 -115.553,209.672 -192.243,251.597 -143.598,78.502 -310.456,86.296 -468.305,77.673 -158.39,-8.653 -316.382,-41.117 -461.553,-111.456 -55.129,-26.712 -109.04,-58.702 -153.877,-102.901 -18.445,-18.183 -38.026,-41.509 -51.967,-67.348 -17.596,-20.795 -30.994,-44.745 -32.85,-72.344 -4.019,-59.796 49.663,-108.165 104.108,-120.533 54.444,-12.369 110.757,0.046 166.385,1.335 97.107,2.249 191.677,-29.448 286.15,-53.755 94.473,-24.306 194.91,-41.195 287.622,-9.996 C -308.98,-89.721 -228.304,-8 -128.25,3.023 -91.235,7.101 -43.501,-1.599 0,0" /></g><g
             transform="translate(1824.4357,221.3203)"
             id="g28"><path
               inkscape:connector-curvature="0"
               id="path30"
               style="fill:#57c7dc;fill-opacity:1;fill-rule:nonzero;stroke:none"
               d="M 0,0 C 38.877,5.238 78.194,10.588 114.698,24.949 151.203,39.31 185.189,63.812 203.073,98.726 197.375,57.981 166.644,24.199 130.661,4.251 75.442,-26.361 11.258,-38.408 -51.111,-42.986 c -51.372,-3.771 -114.528,9.051 -158.037,-25.705 -12.236,-9.774 -21.246,-22.91 -31.708,-34.563 -44.364,-49.412 -118.029,-70.26 -181.707,-51.426 52.888,0.837 105.071,23.92 141.269,62.488 14.209,15.14 26.197,32.66 42.925,44.959 24.573,18.066 56.211,22.689 86.437,26.762 C -101.288,-13.648 -50.644,-6.824 0,0" /></g><g
             transform="translate(132.8571,398.6176)"
             id="g32"><path
               inkscape:connector-curvature="0"
               id="path34"
               style="fill:#57c7dc;fill-opacity:1;fill-rule:nonzero;stroke:none"
               d="M 0,0 C -2.343,25.768 8.746,52.39 28.689,68.875 11.953,37.001 24.088,-4.554 50.072,-29.472 c 25.984,-24.917 62.709,-35.613 98.567,-38.81 -35.599,-7.807 -73.545,-4.537 -107.284,9.246 -14.01,5.723 -28.161,14.113 -34.393,27.904 -2.047,4.53 -3.129,9.427 -4.153,14.291 C 1.635,-11.269 0.516,-5.671 0,0" /></g><g
             transform="translate(1778.1952,287.8281)"
             id="g36"><path
               inkscape:connector-curvature="0"
               id="path38"
               style="fill:#80d3f3;fill-opacity:1;fill-rule:nonzero;stroke:none"
               d="m 0,0 c -4.965,-7.365 -10.745,-14.332 -18.035,-19.405 -7.965,-5.542 -17.379,-8.589 -26.763,-11.059 -57.861,-15.228 -118.744,-4.114 -178.56,-5.497 -59.815,-1.383 -122.581,-16.54 -170.84,-51.907 44.001,33.501 90.68,68.152 145.475,75.634 64.123,8.755 131.521,-21.116 192.812,-0.333 C -17.55,0.44 13.272,33.726 23.297,72.972 22.653,47.1 14.467,21.459 0,0" /></g><g
             transform="translate(859.4667,199.1573)"
             id="g40"><path
               inkscape:connector-curvature="0"
               id="path42"
               style="fill:#80d3f3;fill-opacity:1;fill-rule:nonzero;stroke:none"
               d="m 0,0 c 64.271,-27.653 130.826,-51.02 199.856,-62.436 69.029,-11.416 140.843,-10.556 207.875,9.497 -98.775,-54.65 -225.094,-55.953 -324.975,-3.353 C 53.191,-40.722 26.066,-20.905 0,0" /></g><g
             transform="translate(419.8934,260.8476)"
             id="g44"><path
               inkscape:connector-curvature="0"
               id="path46"
               style="fill:#80d3f3;fill-opacity:1;fill-rule:nonzero;stroke:none"
               d="M 0,0 C -11.908,11.907 -23.356,24.653 -30.754,39.78 -50.122,79.379 -35.133,132.421 2.095,156.027 -9.909,135.815 -15.437,111.956 -14.386,88.472 -13.034,58.266 -0.731,28.667 19.728,6.403 40.187,-15.861 68.642,-30.618 98.626,-34.513 74.458,-40.262 48.049,-35.9 27.013,-22.686 17.035,-16.417 8.333,-8.332 0,0" /></g><g
             transform="translate(326.7874,354.7976)"
             id="g48"><path
               inkscape:connector-curvature="0"
               id="path50"
               style="fill:#80d1e2;fill-opacity:1;fill-rule:nonzero;stroke:none"
               d="m 0,0 c -0.007,0.005 -0.012,0.01 -0.019,0.015 -1.122,0.823 -2.244,1.646 -3.383,2.444 -5.547,3.887 -11.247,7.543 -17.024,11.079 -22.174,13.57 -45.972,26.54 -63.711,45.952 -16.41,17.961 -27.675,39.578 -32.198,63.111 -19.846,-21.527 -25.633,-46.977 -9.325,-76.91 C -98.959,-3.313 -38.564,11.747 5.256,-4.52 3.541,-2.971 1.803,-1.448 0,0" /></g><g
             transform="translate(695.3538,99.4929)"
             id="g52"><path
               inkscape:connector-curvature="0"
               id="path54"
               style="fill:#80d1e2;fill-opacity:1;fill-rule:nonzero;stroke:none"
               d="m 0,0 c -31.949,9.859 -63.592,20.72 -94.818,32.676 -15.317,5.865 -30.552,11.949 -45.668,18.316 -5.843,2.461 -11.689,4.916 -17.512,7.424 -2.347,1.011 -14.759,6.137 -4.617,2.067 -3.214,1.29 -6.424,2.592 -9.623,3.919 -41.405,17.177 -81.625,36.615 -117.113,64.327 -15.291,11.941 -29.886,27.126 -39.919,44.302 -3.167,-10.376 -6.4,-20.551 -5.995,-31.901 2.094,-58.61 64.238,-86.482 110.34,-106.133 103.904,-44.289 214.024,-63.086 326.013,-71.432 22.072,-1.645 44.157,-3.045 66.251,-4.174 C 110.771,-30.682 54.869,-16.931 0,0" /></g><g
             transform="translate(2024.2114,391.5432)"
             id="g56"><path
               inkscape:connector-curvature="0"
               id="path58"
               style="fill:#80d1e2;fill-opacity:1;fill-rule:nonzero;stroke:none"
               d="m 0,0 c -0.888,22.758 -9.998,47.613 -29.607,73.626 -2.598,3.447 -5.34,6.756 -8.216,9.934 1.668,-31.642 -4.991,-63.155 -20.984,-91.33 -45.939,-80.931 -145.149,-105.717 -228.094,-129.59 -9.469,-2.726 -18.932,-5.48 -28.331,-8.439 -3.236,-1.019 -6.455,-2.083 -9.658,-3.191 64.005,9.418 128.01,18.837 192.025,28.257 C -57.802,-109.688 2.451,-62.843 0,0" /></g><g
             transform="translate(1116.4983,1069.3262)"
             id="g60"><path
               inkscape:connector-curvature="0"
               id="path62"
               style="fill:#fece06;fill-opacity:1;fill-rule:nonzero;stroke:none"
               d="m 0,0 c -5.746,6.388 -10.877,13.697 -12.69,22.096 -3.851,17.845 8.7,35.971 24.805,44.569 16.105,8.597 34.981,9.856 53.204,10.939 -16.714,4.167 -33.654,8.421 -48.688,16.829 -15.035,8.407 -28.193,21.615 -32.69,38.244 -5.116,18.915 1.554,38.988 10.219,56.563 7.918,16.057 17.572,31.257 28.741,45.249 -14.093,-16.215 -33.535,-28.484 -54.887,-30.859 -21.353,-2.374 -44.37,6.325 -56.329,24.172 -6.753,10.076 -9.686,22.181 -11.987,34.09 -4.092,21.183 -6.576,42.676 -7.423,64.234 -6.773,-16.452 -14.329,-31.299 -22.158,-41.614 -11.698,-15.411 -26.013,-37.735 -46.671,-40.757 -11.962,-1.75 -24.309,1.831 -34.531,8.285 -14.605,9.22 -62.527,47.52 -65.913,44.134 -3.782,-3.782 19.687,-40.694 16.643,-34.542 6.671,-14.61 34.161,-60.665 24.319,-73.356 -7.057,-9.099 -19.695,-11.434 -31.186,-12.173 -18.663,-1.201 -37.485,0.069 -55.818,3.765 22.083,-7.738 41.748,-29.917 36.368,-52.691 -2.771,-11.73 -11.677,-21.263 -22.003,-27.48 -10.326,-6.218 -22.078,-9.574 -33.674,-12.863 13.23,3.076 27.746,1.24 39.24,-5.998 11.493,-7.238 19.577,-20.043 20.105,-33.616 0.503,-12.927 -5.613,-25.41 -14.124,-35.152 -8.511,-9.742 -19.309,-17.16 -29.983,-24.469 22.016,14.164 53.53,5.964 70.668,-13.825 17.138,-19.789 21.696,-48.02 18.305,-73.978 7.248,29.873 31.526,57.963 62.243,59.177 14.659,0.58 28.929,-4.885 41.813,-11.902 18.654,-10.159 35.78,-24.201 46.05,-42.794 -4.348,19.26 -8.08,41.524 4.152,57.022 9.598,12.161 26.198,16.104 41.617,17.603 29.357,2.855 59.292,-0.368 87.368,-9.406 C 27.891,-24.202 12.259,-13.63 0,0" /></g><g
             transform="translate(1091.1602,1121.2617)"
             id="g64"><path
               inkscape:connector-curvature="0"
               id="path66"
               style="fill:#fbb615;fill-opacity:1;fill-rule:nonzero;stroke:none"
               d="m 0,0 c 8.141,18.005 26.971,29.979 46.593,32.318 -11.525,3.688 -23.984,3.394 -35.655,6.587 -11.672,3.193 -23.456,11.663 -24.401,23.727 -0.466,5.953 1.796,11.751 4.152,17.238 8.04,18.726 13.165,46.156 24.243,63.261 -12.075,-4.124 -19.929,-16.816 -32.451,-19.271 -20.714,-4.061 -45.27,-4.577 -59.45,11.061 -8.037,8.864 -10.905,21.119 -13.487,32.802 -2.638,11.94 -5.277,23.88 -7.915,35.821 -13.502,-16.482 -29.46,-31.797 -49.304,-39.556 -19.843,-7.759 -44.217,-6.626 -60.416,7.214 2.979,-14.962 -1.152,-31.182 -10.925,-42.896 -9.773,-11.715 -24.99,-18.686 -40.243,-18.437 12.162,-8.376 16.631,-25.186 13.12,-39.53 -3.511,-14.344 -13.736,-26.286 -25.663,-34.993 14.484,3.77 30.516,-4.559 37.824,-17.619 7.308,-13.06 6.638,-29.628 0.516,-43.284 -6.122,-13.656 -17.142,-24.641 -29.481,-33.111 16.432,0.13 33.442,-2.798 47.006,-12.073 13.564,-9.275 22.912,-25.881 20.171,-42.083 13.048,19.375 35.39,32.175 58.705,33.632 23.314,1.456 47.075,-8.463 62.434,-26.064 -0.87,4.082 -1.396,8.233 -1.595,12.401 0.211,0.571 0.34,1.21 0.355,1.928 0.712,33.25 63.223,56.247 87.64,37.22 C -3.814,-41.561 -8.141,-18.005 0,0" /></g><g
             transform="translate(1083.9962,1160.9626)"
             id="g68"><path
               inkscape:connector-curvature="0"
               id="path70"
               style="fill:#fbdd24;fill-opacity:1;fill-rule:nonzero;stroke:none"
               d="m 0,0 c 0.378,-21.898 -5.88,-44.295 -20.242,-64.675 -22.669,-32.17 -62.529,-52.288 -103.491,-52.289 -69.191,-0.001 -118.74,51.329 -119.933,115.244 -1.177,63.15 44.899,108.138 110.067,116.814 C -62.758,124.526 -1.122,65.031 0,0" /></g><g
             transform="translate(967.0316,1277.0294)"
             id="g72"><path
               inkscape:connector-curvature="0"
               id="path74"
               style="fill:#f5ed4f;fill-opacity:1;fill-rule:nonzero;stroke:none"
               d="m 0,0 c -48.262,-13.253 -80.648,-49.552 -79.703,-98.128 1.09,-55.961 46.369,-100.903 109.598,-100.902 24.774,0 49.102,7.721 68.731,21.105 12.999,19.618 18.699,40.963 18.339,61.858 C 115.931,-56.187 63.591,-1.003 0,0" /></g><g
             transform="translate(1046.1674,1224.0385)"
             id="g76"><path
               inkscape:connector-curvature="0"
               id="path78"
               style="fill:#fef298;fill-opacity:1;fill-rule:nonzero;stroke:none"
               d="m 0,0 c -15.33,20.985 -40.837,35.704 -67.339,33.244 -4.612,-0.428 -8.5,-3.543 -8.5,-8.5 0,-4.309 3.879,-8.929 8.5,-8.5 21.179,1.966 41.207,-9.146 53.558,-26.053 14.524,-19.881 18.097,-45.439 17.216,-69.445 -0.403,-10.968 16.599,-10.929 17,0 C 21.445,-51.74 16.562,-22.67 0,0" /></g><g
             transform="translate(1688.0746,665.3635)"
             id="g80"><path
               inkscape:connector-curvature="0"
               id="path82"
               style="fill:#5c923b;fill-opacity:1;fill-rule:nonzero;stroke:none"
               d="m 0,0 c -22.15,27.083 -68.387,35.915 -97.239,18.12 -2.833,-1.748 8.228,53.637 6.243,79.087 -0.623,7.975 -2.135,16.201 -4.57,24.191 -10.651,-0.574 -21.058,-5.467 -25.976,-15.411 -1.172,-2.371 -4.227,7.305 -4.427,7.959 -6.852,22.347 -10.348,48.753 -37.094,54.708 -40.403,8.996 -63.233,-36.131 -63.706,-69.735 l -4.688,18.43 c -2.505,9.846 -16.263,13.186 -23.092,5.47 -6.378,-7.207 -10.151,-16.459 -10.226,-25.804 -5.971,12.89 -27.206,20.329 -41.519,13.047 -17.711,-9.01 -23.049,-30.945 -18.702,-49.403 -5.485,14.008 -21.616,23.085 -37.655,24.382 -16.039,1.296 -31.797,-4.03 -45.443,-11.55 -24.354,-13.421 -44.963,-40.12 -34.315,-64.837 49.115,-22.175 101.218,-38.62 154.655,-48.233 97.682,-17.571 204.986,-14.274 286.606,-67.726 C 21.441,-75.793 25.209,-30.823 0,0" /></g><g
             transform="translate(1334.6714,673.6742)"
             id="g84"><path
               inkscape:connector-curvature="0"
               id="path86"
               style="fill:#4a8a3f;fill-opacity:1;fill-rule:nonzero;stroke:none"
               d="m 0,0 c 1.295,8.585 7.693,16.456 15.766,21.52 6.037,3.787 14.258,5.932 21.792,5.192 -0.414,4.701 0.028,9.392 1.989,13.9 3.879,8.919 13.464,14.48 23.777,15.124 13.021,0.813 23.242,-4.793 29.887,-13.301 2.55,1.833 5.702,3.121 9.573,3.637 6.942,0.924 13.326,-2.3 19.252,-5.338 -0.015,1.516 0.011,3.04 0.134,4.581 0.732,9.236 5.508,19.719 17.317,19.508 6.961,-0.124 12.78,-3.072 17.404,-7.518 -0.978,10.182 -1.314,20.798 2.123,29.916 3.258,8.641 10.325,13.913 19.714,16.347 9.807,2.543 20.418,-2.942 26.826,-9.525 5.001,-5.137 8.04,-11.778 11.107,-17.944 3.152,-6.339 5.978,-12.807 8.611,-19.333 5.862,-14.524 10.692,-29.275 14.18,-44.391 2.418,-10.477 4.022,-21.052 5.14,-31.669 18.277,1.421 36.821,-1.438 54.102,-9.632 26.535,-12.581 45.731,-43.069 40.455,-70.203 -1.768,-9.091 -8.458,-16.454 -19.478,-15.686 -5.641,0.392 -11.658,3.792 -15.025,8.479 -0.935,0.373 -1.846,0.813 -2.723,1.32 -9.158,5.297 -18.532,10.235 -28.122,14.819 -1.058,0.503 -2.119,1 -3.182,1.493 -0.274,0.123 -0.618,0.277 -1.06,0.476 -2.283,1.025 -4.586,2.011 -6.891,2.992 -5.187,2.207 -10.444,4.267 -15.731,6.252 -20.566,7.719 -41.894,13.585 -63.547,17.776 -8.017,1.552 -13.182,10.506 -12.787,17.375 0.053,0.937 0.212,1.84 0.426,2.723 -23.433,4.853 -46.636,8.84 -71.888,11.89 -27.822,3.36 -55.859,4.933 -83.816,4.231 C 7.216,-25.192 -0.15,-18.117 -1.774,-11.268 -2.801,-6.935 -1.997,-3.199 0,0" /></g><g
             transform="translate(1677.0414,722.4424)"
             id="g88"><path
               inkscape:connector-curvature="0"
               id="path90"
               style="fill:#5c923b;fill-opacity:1;fill-rule:nonzero;stroke:none"
               d="M 0,0 C 0.512,-1.122 1.156,-2.271 2.269,-2.934 4.675,-4.371 7.775,-2.865 9.937,-1.219 22.022,7.987 28.655,22.89 27.15,37.451 17.416,37.583 7.868,32.999 2.526,25.63 -2.817,18.26 -3.796,8.323 0,0" /></g><g
             transform="translate(1485.6941,698.5084)"
             id="g92"><path
               inkscape:connector-curvature="0"
               id="path94"
               style="fill:#7bb241;fill-opacity:1;fill-rule:nonzero;stroke:none"
               d="M 0,0 C 1.002,-0.381 2.096,-0.706 3.141,-0.494 5.402,-0.036 6.174,2.52 6.331,4.652 7.208,16.571 1.403,28.883 -8.732,36.6 -14.256,31.421 -16.666,23.58 -14.947,16.378 -13.229,9.176 -7.433,2.826 0,0" /></g><g
             transform="translate(765.1014,600.5233)"
             id="g96"><path
               inkscape:connector-curvature="0"
               id="path98"
               style="fill:#5c923b;fill-opacity:1;fill-rule:nonzero;stroke:none"
               d="m 0,0 c -84.3,-34.329 -181.735,-49.996 -243.883,-116.498 -27.1,26.763 -40.112,69.965 -23.977,104.467 16.135,34.501 65.449,51.435 95.47,27.996 -18.014,24.218 -29.89,52.964 -34.223,82.835 -4.623,31.875 2.927,70.287 31.881,84.395 18.544,9.035 41.814,5.02 58.432,-7.201 16.618,-12.221 27.037,-31.541 31.715,-51.631 0.095,6.267 0.19,12.534 0.286,18.801 0.152,10.045 11.841,15.724 19.646,9.399 9.898,-8.02 16.296,-20.558 15.622,-33.342 -6.778,17.502 15.86,35.677 33.752,30.005 17.891,-5.672 27.393,-26.129 27.421,-44.898 1.949,14.629 14.55,26.322 28.731,30.409 14.181,4.087 29.525,1.665 43.434,-3.269 24.824,-8.806 49.111,-31.222 44.796,-57.206 C 89.569,43.99 46.116,18.78 0,0" /></g><g
             transform="translate(814.0428,658.7883)"
             id="g100"><path
               inkscape:connector-curvature="0"
               id="path102"
               style="fill:#4a8a3f;fill-opacity:1;fill-rule:nonzero;stroke:none"
               d="m 0,0 c -3.003,8.146 -10.453,14.698 -18.813,18.217 -6.252,2.632 -14.121,3.277 -20.754,1.229 -0.633,4.659 -2.034,9.156 -4.766,13.209 -5.404,8.017 -15.232,11.754 -24.667,10.568 -11.912,-1.498 -19.927,-8.765 -24.098,-18.234 -2.691,1.34 -5.807,2.041 -9.407,1.863 -6.456,-0.32 -11.522,-4.588 -16.214,-8.595 -0.31,1.483 -0.66,2.964 -1.1,4.445 -2.635,8.88 -9.181,18.266 -19.781,15.982 -6.249,-1.346 -10.864,-5.246 -14.082,-10.396 -1.295,10.104 -3.262,20.519 -8.31,28.807 -4.784,7.855 -12.282,11.754 -21.266,12.477 -9.385,0.754 -17.777,-6.464 -22.146,-14.012 -3.41,-5.891 -4.73,-12.904 -6.176,-19.457 -1.487,-6.739 -2.651,-13.545 -3.63,-20.374 -2.179,-15.198 -3.379,-30.437 -3.292,-45.795 0.061,-10.646 0.875,-21.243 2.137,-31.796 -16.779,-1.83 -32.884,-7.882 -46.711,-18.915 -21.231,-16.942 -32.016,-50.058 -21.459,-75.597 3.538,-8.557 11.142,-14.561 20.912,-11.873 5.002,1.375 9.699,5.75 11.732,10.914 0.763,0.529 1.49,1.118 2.172,1.767 7.124,6.779 14.518,13.245 22.183,19.404 0.846,0.677 1.696,1.348 2.549,2.016 0.221,0.168 0.498,0.38 0.854,0.651 1.839,1.401 3.704,2.769 5.572,4.131 4.204,3.066 8.503,6 12.844,8.866 16.889,11.149 34.861,20.624 53.485,28.523 6.895,2.924 9.636,12.567 7.812,19.198 -0.248,0.904 -0.585,1.757 -0.966,2.58 20.087,8.858 40.15,16.831 62.262,24.249 24.362,8.174 49.3,14.641 74.651,18.877 7.354,1.228 12.481,9.425 12.481,16.392 C 4.008,-6.272 2.485,-2.769 0,0" /></g><g
             transform="translate(521.9573,645.2726)"
             id="g104"><path
               inkscape:connector-curvature="0"
               id="path106"
               style="fill:#5c923b;fill-opacity:1;fill-rule:nonzero;stroke:none"
               d="m 0,0 c -0.221,-1.184 -0.557,-2.418 -1.418,-3.262 -1.862,-1.824 -4.978,-0.901 -7.279,0.325 -12.862,6.853 -22.028,20.222 -23.784,34.69 8.746,1.841 18.333,-0.95 24.725,-7.198 C -1.365,18.307 1.643,8.786 0,0" /></g><g
             transform="translate(672.5928,656.4362)"
             id="g108"><path
               inkscape:connector-curvature="0"
               id="path110"
               style="fill:#7bb241;fill-opacity:1;fill-rule:nonzero;stroke:none"
               d="M 0,0 C -0.822,-0.548 -1.738,-1.057 -2.726,-1.035 -4.862,-0.986 -6.104,1.371 -6.702,3.423 -10.041,14.895 -7.44,27.926 0.047,37.237 6.133,33.157 9.982,25.933 9.973,18.606 9.964,11.279 6.097,4.064 0,0" /></g><g
             transform="translate(629.5983,625.1606)"
             id="g112"><path
               inkscape:connector-curvature="0"
               id="path114"
               style="fill:#4a8a3f;fill-opacity:1;fill-rule:nonzero;stroke:none"
               d="m 0,0 c -0.125,6.204 -0.045,12.413 0.212,18.612 0.034,0.826 0.08,1.652 0.124,2.477 C 0.485,14.059 0.356,7.022 0,0" /></g><g
             style="fill:#ffffff"
             transform="matrix(1.1098983,0,0,1.0740146,2000.4542,1836.4852)"
             id="g116"><path
               inkscape:connector-curvature="0"
               id="path118"
               style="fill:#ffffff;fill-opacity:1;fill-rule:nonzero;stroke:none"
               d="m 0,0 c -10.65,-2.391 -21.535,-3.541 -32.417,-4.435 -1.046,-0.086 -1.723,-1.102 -1.465,-2.121 2.113,-8.369 10.638,-14.21 19.222,-16.225 9.243,-2.17 18.904,-1.105 28.376,-1.763 16.134,-1.121 31.867,-7.428 44.308,-17.763 1.287,-1.07 2.603,-2.28 3.027,-3.899 0.42,-1.603 -0.12,-3.288 -0.694,-4.843 -2.176,-5.894 -4.943,-11.571 -8.244,-16.917 4.176,-2.744 10.031,-2.645 14.111,0.239 1.884,-6.6 12.261,-8.461 16.321,-2.927 1.934,-3.539 4.8,-6.959 9.055,-7.297 2.066,-0.166 4.193,0.686 5.387,2.382 1.787,2.535 0.642,5.035 -0.295,7.387 -2.874,7.204 -4.077,15.068 -3.488,22.802 12.957,7.601 28.527,10.651 43.395,8.501 12.651,-1.829 24.528,-7.24 37.085,-9.627 11.623,-2.209 24.923,-1.23 33.704,6.384 0.833,0.722 0.476,2.104 -0.61,2.294 -13.148,2.302 -22.812,14.237 -33.733,22.445 -23.14,17.393 -52.682,13.676 -80.4,5.331 4.105,7.087 -0.403,16.936 -5.615,20.249 -4.424,2.811 -9.861,3.754 -14.419,6.249 -0.741,0.405 -1.6,-0.289 -1.318,-1.086 C 74.282,6.89 74.158,-2.663 70.872,-11.03 66.373,1.377 51.941,7.614 38.743,7.614 25.546,7.614 12.876,2.892 0,0" /></g><g
             transform="translate(1678.6793,302.546)"
             id="g120"><path
               inkscape:connector-curvature="0"
               id="path122"
               style="fill:#ffd56e;fill-opacity:1;fill-rule:nonzero;stroke:none"
               d="m 0,0 c 51.106,1.878 96.369,17.972 111.547,85.7 24.745,110.422 -115.553,209.672 -192.243,251.597 -143.598,78.502 -310.456,86.296 -468.305,77.673 -158.39,-8.653 -316.382,-41.117 -461.553,-111.456 -55.129,-26.712 -109.04,-58.702 -153.877,-102.901 -18.445,-18.183 -38.026,-41.509 -51.967,-67.348 -17.596,-20.795 -30.994,-44.745 -32.85,-72.344 -4.019,-59.796 49.663,-108.165 104.108,-120.533 54.444,-12.369 110.757,0.046 166.385,1.335 97.107,2.249 191.677,-29.448 286.15,-53.755 94.473,-24.306 194.91,-41.195 287.622,-9.996 C -308.98,-89.721 -228.304,-8 -128.25,3.023 -91.235,7.101 -43.501,-1.599 0,0" /></g><g
             transform="translate(462.2812,435.8114)"
             id="g124"><path
               inkscape:connector-curvature="0"
               id="path126"
               style="fill:#f8cc53;fill-opacity:1;fill-rule:nonzero;stroke:none"
               d="m 0,0 c -17.596,-20.795 -30.994,-44.745 -32.849,-72.344 -4.02,-59.796 49.662,-108.165 104.107,-120.534 54.444,-12.368 110.757,0.047 166.385,1.335 97.107,2.249 191.677,-29.448 286.15,-53.754 94.473,-24.307 194.91,-41.196 287.622,-9.996 96.003,32.307 176.679,114.027 276.732,125.051 37.016,4.078 84.75,-4.622 128.251,-3.023 51.106,1.878 96.369,17.971 111.547,85.7 23.577,105.211 -102.678,200.279 -180.984,245.282 2.553,-23.788 0.467,-47.967 -8.471,-69.735 C 1116.481,74.38 1060.267,48.477 1007.913,32.557 774.785,-38.332 527.125,-8.262 285.039,-17.364 243.923,-18.91 202.201,-21.546 162.124,-11.53 139.569,-5.893 116.515,4.901 103.982,25.879 94.876,41.123 92.456,59.991 93.041,78.108 c 0.294,9.111 1.346,18.171 3.076,27.081 C 80.683,93.613 65.887,81.069 51.967,67.347 33.522,49.165 13.941,25.839 0,0" /></g><g
             transform="translate(1678.6793,416.7038)"
             id="g128"><path
               inkscape:connector-curvature="0"
               id="path130"
               style="fill:#eab838;fill-opacity:1;fill-rule:nonzero;stroke:none"
               d="M 0,0 C -43.501,-1.599 -91.235,7.101 -128.251,3.023 -228.304,-8 -308.98,-89.721 -404.983,-122.028 c -92.712,-31.199 -193.149,-14.31 -287.622,9.996 -94.473,24.307 -189.043,56.004 -286.15,53.755 -55.628,-1.289 -111.941,-13.704 -166.385,-1.335 -33.533,7.617 -66.771,28.896 -86.422,58.086 -9.734,-15.633 -16.415,-32.816 -17.686,-51.71 -4.019,-59.797 49.663,-108.166 104.108,-120.534 54.444,-12.369 110.757,0.047 166.385,1.335 97.107,2.249 191.677,-29.448 286.15,-53.755 94.473,-24.306 194.91,-41.195 287.622,-9.996 96.003,32.308 176.679,114.028 276.732,125.051 37.016,4.079 84.75,-4.622 128.251,-3.023 51.106,1.879 96.369,17.972 111.547,85.7 6.476,28.9 1.643,57.034 -10.392,83.575 C 80.609,12.852 42.306,1.555 0,0" /></g><g
             transform="translate(1173.7704,454.8563)"
             id="g132"><path
               inkscape:connector-curvature="0"
               id="path134"
               style="fill:#dead4a;fill-opacity:1;fill-rule:nonzero;stroke:none"
               d="m 0,0 c 49.882,3.616 99.299,10.066 148.165,19.753 13.901,2.756 36.644,8.814 29.194,22.172 -10.295,18.459 -60.101,13.859 -79.23,15.19 -37.745,2.625 -75.591,4.213 -113.457,4.763 -46.52,0.675 -93.071,-0.215 -139.507,-2.672 -39.698,-2.1 -86.477,-0.258 -122.866,-15.504 -4.638,-1.943 -9.289,-4.238 -12.288,-7.822 -11.464,-13.701 10.405,-26.598 23.194,-30.269 21.087,-6.054 44.007,-7.665 66.068,-9.124 57.68,-3.813 115.779,-1.175 173.436,1.817 C -18.179,-1.223 -9.082,-0.658 0,0" /></g><g
             transform="translate(1717.6184,327.271)"
             id="g136"><path
               inkscape:connector-curvature="0"
               id="path138"
               style="fill:#d19829;fill-opacity:1;fill-rule:nonzero;stroke:none"
               d="m 0,0 c -7.208,-0.527 -14.501,-0.358 -21.688,0.414 -41.569,4.46 -85.4,13.407 -127.067,11.692 -21.53,-0.887 -39.057,-7.002 -59.476,-13.429 -62.261,-19.598 -119.338,-51.928 -178.313,-79.232 -41.629,-19.274 -83.246,-42.911 -128.151,-53.598 -41.77,-9.953 -85.97,-0.716 -127.175,8.079 -20.39,4.351 -41.098,7.124 -61.476,11.711 -95.582,21.512 -194.869,56.373 -294.654,48.458 -39.082,-3.1 -78.164,-8.744 -117.445,-8.277 -38.347,0.455 -78.685,5.575 -111.386,27.17 -28.018,18.503 -48.714,44.134 -61.546,74.88 1.204,-55.922 52.405,-100.417 104.298,-112.205 54.444,-12.369 110.757,0.046 166.385,1.335 97.107,2.249 191.677,-29.448 286.15,-53.755 94.473,-24.306 194.91,-41.195 287.622,-9.996 58.674,19.745 109.434,56.434 163.565,85.477 61.076,32.77 117.889,44.187 186.964,38.252 29.531,-2.538 59.691,-4.853 88.471,2.237 28.779,7.09 56.441,25.301 67.202,52.919 C 47.223,11.297 24.087,1.761 0,0" /></g><g
             transform="translate(650.1147,406.5)"
             id="g140"><path
               inkscape:connector-curvature="0"
               id="path142"
               style="fill:#dead4a;fill-opacity:1;fill-rule:nonzero;stroke:none"
               d="m 0,0 c 0,-12.979 -32.234,-23.5 -71.996,-23.5 -39.763,0 -71.997,10.521 -71.997,23.5 0,12.979 32.234,23.5 71.997,23.5 C -32.234,23.5 0,12.979 0,0" /></g><g
             transform="translate(647.1649,464.2117)"
             id="g144"><path
               inkscape:connector-curvature="0"
               id="path146"
               style="fill:#5c923b;fill-opacity:1;fill-rule:nonzero;stroke:none"
               d="m 0,0 c -7.617,-10.284 -13.358,-21.952 -16.856,-34.262 17.047,10.131 36.124,16.829 55.762,19.58 -27.187,-17.157 -54.375,-34.315 -81.562,-51.473 -3.868,40.114 5.432,81.391 26.129,115.971 C -21.503,22.955 -24.3,-4.309 -24.88,-31.62 -19.74,-19.043 -11.015,-7.955 0,0" /></g><g
             transform="translate(692.8291,1329.6725)"
             id="g148"><path
               inkscape:connector-curvature="0"
               id="path150"
               style="fill:#bb6745;fill-opacity:1;fill-rule:nonzero;stroke:none"
               d="m 0,0 c 0,0 -1.406,-3.558 -4.042,-10.231 -110.956,-280.81 -151.323,-586.243 -153.741,-884.982 -0.089,-11.019 -0.162,-20.042 -0.217,-26.81 1.391,-0.909 2.339,-2.307 2.85,-3.869 14.576,-3.052 29.101,-7.199 44.009,-7.833 13.344,-0.567 25.247,2.101 35.373,9.45 -0.14,5.647 -0.562,12.36 -1.487,20.042 -18.989,157.766 1.314,512.569 97.789,853.239 3.462,12.225 7.099,21.773 9.331,27.886 2.331,6.33 3.575,9.706 3.575,9.706 z" /></g><g
             transform="translate(644.3973,964.5049)"
             id="g152"><path
               inkscape:connector-curvature="0"
               id="path154"
               style="fill:#b05434;fill-opacity:1;fill-rule:nonzero;stroke:none"
               d="M 0,0 C 0.06,-0.003 0.114,-0.019 0.174,-0.023 0.176,-0.007 0.179,0.009 0.182,0.025 0.096,0.018 0.011,0.01 -0.074,0.004 -0.05,0.003 -0.025,0.001 0,0" /></g><g
             transform="translate(611.2786,646.2846)"
             id="g156"><path
               inkscape:connector-curvature="0"
               id="path158"
               style="fill:#b05434;fill-opacity:1;fill-rule:nonzero;stroke:none"
               d="M 0,0 C 0.021,0.474 0.042,0.948 0.064,1.423 -0.423,1.156 -0.959,0.933 -1.542,0.749 -0.964,0.607 -0.45,0.343 0,0" /></g><g
             transform="translate(703.9979,1244.6725)"
             id="g160"><path
               inkscape:connector-curvature="0"
               id="path162"
               style="fill:#a34b2f;fill-opacity:1;fill-rule:nonzero;stroke:none"
               d="m 0,0 c -5.562,1.435 -12.527,0.763 -17.693,0.358 -9.974,-0.782 -19.726,-4.156 -28.311,-9.375 -2.379,-6.974 -4.724,-13.96 -7.023,-20.959 0.069,-0.021 0.131,-0.047 0.203,-0.065 17.537,-4.456 18.483,-25.007 17.243,-39.742 -1.321,-15.696 -4.652,-31.154 -9.532,-46.112 -10.446,2.867 -20.438,7.241 -29.743,13.065 -0.163,0.102 -0.325,0.173 -0.487,0.25 -0.93,-3.24 -1.859,-6.48 -2.773,-9.724 6.185,-6.28 9.487,-14.998 11.698,-23.671 3.86,-15.148 4.982,-30.988 4.999,-46.568 0.017,-15.789 -1.471,-31.556 -3.338,-47.219 -0.902,-7.567 -1.939,-15.119 -2.984,-22.667 -0.521,-3.768 -1.048,-7.534 -1.571,-11.302 -0.43,-3.105 -2.323,-8.569 -1.261,-11.599 0.85,-2.425 2.325,-3.703 4.133,-4.351 -15.541,1.575 -30.474,6.351 -44.125,14.138 -1.005,0.573 -1.974,0.674 -2.835,0.481 -0.51,0.319 -1.028,0.629 -1.556,0.926 -0.575,-2.795 -1.136,-5.593 -1.701,-8.39 8.49,-5.968 12.915,-15.878 15.877,-25.79 4.477,-14.977 6.246,-30.758 6.9,-46.324 0.663,-15.775 -0.179,-31.589 -1.404,-47.316 -0.592,-7.598 -1.32,-15.185 -2.055,-22.771 -0.366,-3.785 -0.739,-7.57 -1.107,-11.356 -0.241,-2.479 -1.338,-6.48 -1.187,-9.518 -12.423,2 -24.408,6.075 -35.592,12.151 -1.017,0.553 -1.987,0.633 -2.845,0.423 -1.048,0.625 -2.125,1.215 -3.259,1.731 -0.171,0.077 -0.338,0.118 -0.506,0.172 -0.384,-2.772 -0.768,-5.544 -1.143,-8.317 9.783,-5.581 14.833,-16.057 18.215,-26.572 4.785,-14.881 6.88,-30.622 7.857,-46.171 0.989,-15.758 0.475,-31.586 -0.425,-47.335 -0.434,-7.609 -1.004,-15.209 -1.582,-22.808 -0.288,-3.793 -0.583,-7.584 -0.872,-11.377 -0.238,-3.126 -1.792,-8.696 -0.545,-11.655 0.076,-0.18 0.164,-0.333 0.246,-0.5 -10.708,1.829 -21.144,5.115 -31.099,9.825 -1.12,0.53 -2.164,0.559 -3.069,0.283 -1.158,0.606 -2.347,1.172 -3.591,1.657 -0.532,0.207 -1.045,0.288 -1.541,0.305 -0.227,-2.895 -0.446,-5.789 -0.665,-8.683 11.384,-5.217 17.64,-16.422 22.005,-27.784 6.009,-15.639 9.19,-32.358 11.163,-48.939 1.999,-16.804 2.393,-33.773 2.371,-50.679 -0.011,-8.168 -0.168,-16.336 -0.333,-24.501 -0.082,-4.076 -0.171,-8.151 -0.254,-12.226 -0.052,-2.563 -0.834,-6.688 -0.534,-9.875 -0.136,-0.402 -0.228,-0.843 -0.221,-1.355 0.221,-17.054 0.793,-34.099 1.716,-51.129 0.537,-9.903 0.968,-19.943 2.474,-29.78 13.081,-0.454 24.764,2.236 34.725,9.465 -0.14,5.647 -0.562,12.36 -1.487,20.042 -6.453,53.618 -8.366,130 -4.295,220.845 -0.45,0.343 -0.965,0.607 -1.542,0.749 0.582,0.184 1.119,0.407 1.605,0.674 4.242,93.386 14.798,201.962 33.229,316.774 -0.059,0.005 -0.113,0.021 -0.174,0.023 -0.024,0.001 -0.049,0.003 -0.074,0.004 0.085,0.007 0.171,0.014 0.256,0.021 C -44.816,-189.188 -25.269,-94.323 0,0" /></g><g
             transform="translate(632.9301,1145.1892)"
             id="g164"><path
               inkscape:connector-curvature="0"
               id="path166"
               style="fill:#702814;fill-opacity:1;fill-rule:nonzero;stroke:none"
               d="m 0,0 c 9.646,-12.094 25.147,-18.194 40.437,-15.268 5.055,0.967 7.03,-6.787 1.962,-7.757 C 24.448,-26.461 5.661,-19.881 -5.796,-5.516 -8.985,-1.518 -3.225,4.043 0,0" /></g><g
             transform="translate(592.567,984.5061)"
             id="g168"><path
               inkscape:connector-curvature="0"
               id="path170"
               style="fill:#702814;fill-opacity:1;fill-rule:nonzero;stroke:none"
               d="m 0,0 c 13.659,-13.232 32.702,-16.246 51.001,-14.663 5.148,0.445 4.986,-7.562 -0.098,-8.002 C 30.391,-24.439 9.387,-20.224 -5.796,-5.516 -9.503,-1.925 -3.703,3.587 0,0" /></g><g
             transform="translate(565.5155,825.7885)"
             id="g172"><path
               inkscape:connector-curvature="0"
               id="path174"
               style="fill:#702814;fill-opacity:1;fill-rule:nonzero;stroke:none"
               d="m 0,0 c 15.51,-12.8 36.523,-17.471 56.035,-12.895 5.028,1.179 6.983,-6.58 1.962,-7.757 C 35.455,-25.938 12.008,-20.209 -5.796,-5.516 -9.766,-2.24 -3.936,3.248 0,0" /></g><g
             transform="translate(547.3021,667.1888)"
             id="g176"><path
               inkscape:connector-curvature="0"
               id="path178"
               style="fill:#702814;fill-opacity:1;fill-rule:nonzero;stroke:none"
               d="m 0,0 c 17.713,-13.727 40.536,-19.063 62.454,-14.163 5.037,1.126 6.997,-6.631 1.962,-7.757 -23.85,-5.332 -49.243,0.098 -68.6,15.099 C -8.211,-3.7 -4.082,3.163 0,0" /></g><g
             transform="translate(538.1257,485.8616)"
             id="g180"><path
               inkscape:connector-curvature="0"
               id="path182"
               style="fill:#702814;fill-opacity:1;fill-rule:nonzero;stroke:none"
               d="m 0,0 c 10.794,-7.612 24.245,-10.041 37.083,-11.915 11.164,-1.63 22.951,-1.927 33.136,3.58 4.54,2.454 8.408,-4.548 3.864,-7.005 C 62.584,-21.558 49.642,-21.626 36.985,-19.917 22.776,-17.998 7.748,-15.236 -4.184,-6.821 -8.373,-3.867 -4.228,2.981 0,0" /></g><g
             transform="translate(740.0137,1473.4979)"
             id="g184"><path
               inkscape:connector-curvature="0"
               id="path186"
               style="fill:#4a893c;fill-opacity:1;fill-rule:nonzero;stroke:none"
               d="m 0,0 c -3.765,0.85 -17.875,2.968 -21.64,3.818 8.735,0.509 18.684,0.296 23.3,-0.064 0.495,1.693 0.952,3.397 1.373,5.111 0.15,0.614 -39.296,3.116 -39.296,3.116 0,0 40.3,1.298 40.552,2.589 1.886,9.651 2.611,19.529 2.143,29.352 -10.636,4.602 -22.144,7.175 -33.726,7.541 10.691,1.985 22.979,0.663 33.204,-3.036 0.735,3.63 -1.585,14.424 -3.929,20.967 -2.343,6.544 -7.848,15.623 -7.848,15.623 0,0 -20.236,0.61 -27.461,-0.597 7.404,3.371 16.417,4.925 25.587,5.028 0.51,7.936 -15.199,23.179 -15.199,23.179 0,0 -14.163,-0.012 -20.644,-4.62 1.502,4.519 5.016,8.141 9.009,10.736 -15.992,15.703 -39.525,23.355 -61.694,20.058 17.71,-7.198 31.946,-21.71 40.646,-38.733 8.7,-17.023 12.132,-36.415 11.894,-55.531 -0.545,-43.807 -20.2,-101.892 -54.059,-115.476 29.016,2.014 47.96,6.449 69.648,23.363 -9.631,2.619 -11.609,4.629 -21.241,7.248 10.355,-0.127 17.271,-0.375 27.625,-0.502 4.339,5.197 9.515,9.59 12.915,14.706 -7.774,1.333 -16.835,3.583 -24.329,6.044 8.015,1.134 18.053,0.527 25.977,-1.126 C -4.472,-14.286 -1.475,-7.368 0,0" /></g><g
             transform="translate(856.3962,1483.1262)"
             id="g188"><path
               inkscape:connector-curvature="0"
               id="path190"
               style="fill:#7bb241;fill-opacity:1;fill-rule:nonzero;stroke:none"
               d="m 0,0 c -0.55,-5.802 -1.016,-27.34 -1.566,-33.142 -2.439,12.985 -4.028,27.925 -4.374,34.907 -2.631,0.416 -5.272,0.774 -7.918,1.075 -0.949,0.108 2.872,-59.448 2.872,-59.448 0,0 -9.676,60.105 -11.657,60.235 -14.816,0.972 -29.749,0.163 -44.371,-2.423 -4.851,-16.81 -6.496,-34.54 -4.822,-51.956 -5.024,15.63 -5.402,34.288 -1.823,50.311 -5.579,0.404 -21.299,-5.142 -30.649,-9.907 -9.35,-4.765 -21.892,-14.753 -21.892,-14.753 0,0 2.969,-30.423 6.164,-41.012 -6.469,10.442 -10.526,23.642 -12.44,37.357 -11.983,-0.76 -31.797,-27.211 -31.797,-27.211 0,0 2.734,-21.208 10.88,-30.031 -7.056,1.382 -13.155,5.95 -17.807,11.432 -20.45,-26.963 -27.393,-63.675 -18.203,-96.244 7.383,27.905 26.384,52.009 50.21,68.306 23.825,16.296 52.209,25.156 80.883,28.468 65.713,7.588 156.474,-10.702 183.315,-58.805 -8.584,43.07 -18.86,70.59 -48.353,99.826 -2.075,-14.927 -4.706,-18.275 -6.781,-33.202 -1.796,15.531 -2.751,25.937 -4.547,41.468 -8.616,5.501 -16.19,12.41 -24.504,16.521 -0.504,-11.899 -2.135,-25.9 -4.383,-37.596 -3.236,11.785 -4.253,26.936 -3.298,39.12 C 22.253,-3.957 11.318,-0.797 0,0" /></g><g
             transform="translate(838.1533,1181.01)"
             id="g192"><path
               inkscape:connector-curvature="0"
               id="path194"
               style="fill:#5c923b;fill-opacity:1;fill-rule:nonzero;stroke:none"
               d="m 0,0 c -5.313,-1.211 -24.463,-7.237 -29.775,-8.448 10.556,6.27 23.146,12.304 29.173,14.739 -0.589,2.678 -1.233,5.346 -1.929,8.003 -0.25,0.954 -51.347,-20.663 -51.347,-20.663 0,0 49.455,27.46 48.85,29.42 -4.526,14.662 -10.663,28.901 -18.253,42.304 -16.577,-0.351 -32.799,-4.087 -47.539,-10.948 11.949,9.573 28.254,15.55 43.675,16.898 -1.671,5.532 -12.268,19.11 -19.864,26.746 -7.596,7.635 -20.953,16.795 -20.953,16.795 0,0 -25.732,-12.029 -33.904,-18.311 6.853,9.413 17.011,17.318 28.403,23.297 -5.023,11.394 -35.53,22.656 -35.53,22.656 0,0 -17.697,-9.03 -22.514,-19.583 -1.345,7.259 0.464,14.548 3.606,20.708 -31.19,11.724 -66.065,7.419 -91.428,-11.289 27.273,1.232 55.418,-9.948 78.434,-28.154 23.016,-18.206 41.134,-43.07 54.468,-69.884 30.558,-61.447 47.409,-154.972 14.767,-195.469 34.837,21.277 55.357,39.519 70.409,76.914 -13.908,-2.476 -17.814,-0.931 -31.723,-3.408 13.035,6.413 21.858,10.468 34.893,16.881 1.718,10.01 5.055,19.433 5.657,28.733 -10.669,-3.09 -23.6,-5.718 -34.723,-7.056 9.21,6.683 22.192,12.226 33.277,14.963 C 4.596,-22.772 3.41,-11.216 0,0" /></g><g
             transform="translate(588.4448,1333.7008)"
             id="g196"><path
               inkscape:connector-curvature="0"
               id="path198"
               style="fill:#579742;fill-opacity:1;fill-rule:nonzero;stroke:none"
               d="M 0,0 C 11.758,46.642 50.954,85.257 97.767,96.317 95.198,88.492 94.95,79.921 97.06,71.96 c 1.706,6.256 3.413,12.512 5.119,18.769 0.675,2.476 4.089,9.208 4.089,9.208 0,0 6.743,1.043 10.978,0.905 16.085,-0.525 33.087,-1.179 48.29,-6.458 -3.023,-6.785 -5.476,-16.578 -5.21,-24.002 4.604,8.159 10.266,15.72 16.8,22.435 10.575,-1.741 26.051,-5.51 34.957,-11.471 -15.021,-10.888 -25.072,-28.372 -26.921,-46.831 9.189,15.099 20.907,28.656 34.517,39.935 11.678,-4.635 22.345,-11.796 31.055,-20.85 -14.926,-8.851 -28.043,-20.739 -38.317,-34.724 6.903,3.005 13.806,6.01 20.708,9.015 8.858,3.855 28.354,12.544 28.354,12.544 0,0 14.71,-12.541 19.999,-22.215 -13.379,-4.131 -25.887,-11.059 -36.489,-20.207 11.065,3.369 22.13,6.738 33.194,10.107 3.341,1.017 6.906,2.039 10.266,1.089 2.893,-0.819 5.184,-2.984 7.305,-5.115 21.044,-21.145 37.866,-46.475 49.191,-74.074 -11.951,-2.829 -23.471,-7.469 -34.046,-13.715 12.893,2.363 25.785,4.727 38.677,7.09 2.87,-4.922 5.699,-10.166 7.822,-15.675 -11.711,-1.872 -24.622,-3.777 -36.333,-5.651 12.443,-0.088 42.112,-8.876 42.112,-8.876 0,0 7.934,-10.318 10.107,-25.977 -9.473,11.866 -24.805,17.783 -39.809,20.109 12,-8.13 40.436,-32.857 40.436,-32.857 0,0 3.62,-13.687 4.109,-29.273 -6.845,7.169 -13.69,14.338 -20.535,21.507 5.879,-27.606 11.758,-55.212 17.638,-82.818 -16.515,40.683 -33.409,81.492 -56.838,118.626 -23.428,37.135 -53.922,70.749 -92.414,91.874 -22.173,12.169 -46.447,19.932 -70.597,27.45 C 111.293,15.526 62.317,28.391 20.578,8.906 13.747,5.716 6.406,3.976 0,0" /></g><g
             transform="translate(591.5493,1342.4603)"
             id="g200"><path
               inkscape:connector-curvature="0"
               id="path202"
               style="fill:#a2c83a;fill-opacity:1;fill-rule:nonzero;stroke:none"
               d="m 0,0 c 8.791,9.61 19.306,17.519 30.393,24.285 3.601,2.198 7.32,4.306 11.102,6.353 0.924,-2.988 1.988,-5.932 3.312,-8.765 -0.221,3.446 -0.295,6.901 -0.243,10.354 7.078,3.704 14.408,7.102 21.923,10.149 -0.241,-7.704 0.554,-15.44 2.455,-22.91 0.492,8.336 1.404,16.638 2.52,24.914 15.118,5.741 30.808,9.974 46.296,12.042 10.492,1.401 21.043,1.376 31.507,0.296 -4.816,-12.616 -8.897,-25.711 -7.453,-39.016 5.057,13.062 11.456,25.586 18.932,37.43 5.389,-0.987 10.73,-2.268 16.011,-3.816 -8.287,-13.125 -14.184,-27.759 -16.926,-43.039 6.323,14.483 13.267,29.569 24.176,40.611 15.913,-5.46 31.161,-13.153 44.998,-22.657 0.905,-0.622 1.752,-1.318 2.647,-1.953 -2.371,-5.319 -3.84,-11.039 -4.241,-16.848 2.238,4.902 5.314,9.405 9,13.337 1.431,-1.075 2.917,-2.08 4.321,-3.187 -7.075,-9.916 -13.047,-20.619 -17.607,-31.914 6.23,10.21 13.84,19.55 22.454,27.849 8.222,-6.852 15.994,-14.229 23.357,-22.037 -3.714,-6.475 -6.761,-13.334 -8.934,-20.475 4.157,5.487 8.752,10.626 13.597,15.515 5.968,-6.611 11.665,-13.486 17.142,-20.539 -6.937,-10.115 -13.458,-20.518 -19.244,-31.334 7.129,9.08 15.43,17.225 24.585,24.256 4.468,-6.003 8.836,-12.08 13.025,-18.254 6.216,-9.161 11.916,-18.98 17.373,-29.052 -3.229,-3.771 -6.313,-7.663 -9.091,-11.776 3.616,2.742 7.419,5.229 11.333,7.526 2.203,-4.197 4.455,-8.335 6.524,-12.655 -3.061,-3.591 -6.121,-7.182 -9.182,-10.773 3.479,2.567 7.146,4.863 10.757,7.24 6.05,-12.955 11.528,-26.355 16.318,-40.098 -2.925,-2.117 -5.776,-4.334 -8.459,-6.75 3.142,1.376 6.359,2.579 9.62,3.643 2.351,-6.909 4.432,-13.919 6.449,-20.943 -2.51,-1.835 -5.022,-3.67 -7.532,-5.505 2.763,1.014 5.607,1.808 8.494,2.379 7.305,-26.123 12.312,-52.791 14.684,-78.723 -43.739,130.041 -116.033,176.998 -222.374,225.372 -11.428,5.199 -58.235,15.88 -70.483,18.636 C 49.302,-3.131 13.24,-12.623 -18.238,-28.128 -13.182,-25.638 -4.893,-5.348 0,0" /></g><g
             transform="translate(554.7943,1573.6205)"
             id="g204"><path
               inkscape:connector-curvature="0"
               id="path206"
               style="fill:#7bb241;fill-opacity:1;fill-rule:nonzero;stroke:none"
               d="M 0,0 C -0.999,-5.741 -6.23,-26.64 -7.229,-32.381 -1.452,-20.5 4.02,-6.507 6.195,0.136 c 2.648,-0.292 5.289,-0.643 7.921,-1.05 0.945,-0.147 -18.447,-56.588 -18.447,-56.588 0,0 25.184,55.427 27.129,55.03 14.548,-2.969 28.739,-7.687 42.161,-14.038 0.247,-17.495 -2.841,-35.03 -9.049,-51.389 8.968,13.753 14.252,31.65 15.026,48.05 5.488,-1.081 19.189,-10.577 26.951,-17.638 7.763,-7.062 17.227,-20.004 17.227,-20.004 0,0 -10.886,-28.563 -16.76,-37.935 8.993,8.367 16.387,20.029 21.849,32.754 11.36,-3.893 23.497,-34.632 23.497,-34.632 0,0 -8.23,-19.737 -18.414,-26.099 7.171,-0.528 14.259,2.269 20.192,6.331 12.615,-31.401 9.632,-68.644 -7.821,-97.637 0.237,28.864 -11.736,57.126 -30.421,79.128 -18.684,22.002 -43.727,38.033 -70.513,48.789 -61.386,24.648 -153.758,30.94 -192.333,-8.383 19.638,39.281 36.807,63.118 72.965,83.541 -1.935,-14.945 -0.28,-18.869 -2.214,-33.814 5.827,14.508 9.493,24.293 15.321,38.801 9.761,3.034 18.888,7.701 27.993,9.474 -2.652,-11.611 -4.77,-25.546 -5.687,-37.421 6.231,10.515 11.206,24.861 13.497,36.866 C -22.509,2.051 -11.127,2.216 0,0" /></g><g
             transform="translate(716.9769,1251.5876)"
             id="g208"><path
               inkscape:connector-curvature="0"
               id="path210"
               style="fill:#d99027;fill-opacity:1;fill-rule:nonzero;stroke:none"
               d="m 0,0 c -10.729,-25.236 -39.885,-36.996 -65.121,-26.267 -25.235,10.729 -36.995,39.885 -26.266,65.121 10.729,25.235 39.884,36.996 65.12,26.266 C -1.031,54.391 10.729,25.236 0,0" /></g><g
             transform="translate(578.8446,1366.5773)"
             id="g212"><path
               inkscape:connector-curvature="0"
               id="path214"
               style="fill:#7bb241;fill-opacity:1;fill-rule:nonzero;stroke:none"
               d="m 0,0 c -6.852,-7.669 -13.705,-15.339 -20.557,-23.008 8.742,-6.319 16.293,-14.279 22.142,-23.342 -9.341,5.29 -19.07,9.894 -29.084,13.762 -1.755,-4.128 -3.509,-8.257 -5.265,-12.386 7.067,-2.975 13.413,-7.645 18.355,-13.507 -5.766,1.624 -11.532,3.249 -17.298,4.873 -2.171,0.612 -4.487,1.224 -6.645,0.566 -2.281,-0.694 -3.908,-2.661 -5.359,-4.553 -13.416,-17.493 -23.938,-37.2 -31.008,-58.08 8.142,1.085 16.685,-4.195 19.356,-11.962 -6.285,5.263 -16.361,3.102 -22.34,-2.506 -5.979,-5.609 -8.869,-13.677 -11.555,-21.422 -4.112,-11.859 -8.225,-23.719 -12.337,-35.578 6.873,-2.927 13.748,-5.854 20.622,-8.781 -5.652,2.963 -12.929,0.587 -17.447,-3.919 -4.519,-4.506 -6.886,-10.683 -9.025,-16.696 -9.145,-25.709 -16.415,-52.086 -21.732,-78.851 7.408,9.706 14.816,19.413 22.224,29.119 7.704,10.094 15.426,20.214 21.938,31.116 5.592,9.362 10.271,19.268 16.267,28.377 6.825,10.368 15.26,19.56 23.655,28.703 26.773,29.153 53.545,58.307 80.317,87.461 23.171,25.231 46.731,50.789 75.843,68.845 4.945,3.068 10.747,7.216 10.155,13.005 -0.316,3.083 -2.461,5.626 -4.537,7.926 C 102.973,14.354 87.992,28.4 71.949,41.106 68.982,43.456 65.639,45.877 61.856,45.745 58.868,45.641 56.199,43.949 53.697,42.312 41.93,34.616 30.164,26.92 18.398,19.224 25.024,10.209 31.65,1.194 38.276,-7.821 34.273,-3.54 30.27,0.742 26.266,5.023 23.481,8.001 20.506,11.101 16.6,12.272 12.695,13.442 7.64,11.827 6.518,7.907 15.437,1.489 22.632,-7.3 27.163,-17.311 19.135,-10.109 9.918,-4.235 0,0" /></g><g
             transform="translate(661.7872,1228.0031)"
             id="g216"><path
               inkscape:connector-curvature="0"
               id="path218"
               style="fill:#a2c83a;fill-opacity:1;fill-rule:nonzero;stroke:none"
               d="M 0,0 C -5.335,9.593 -10.67,19.186 -16.004,28.779 -5.857,22.391 2.917,13.832 9.553,3.846 c 9.132,6.308 18.812,11.822 28.894,16.461 -8.528,16.254 -18.439,31.781 -29.591,46.36 19.05,-6.287 35.277,-20.675 43.8,-38.835 1.484,10.259 -1.73,21.103 -8.563,28.897 9.329,-5.15 16.623,-13.881 20.031,-23.978 9.292,8.072 19.343,15.27 29.977,21.469 -4.847,26.946 -18.229,52.291 -37.748,71.489 -7.193,7.074 -16.3,13.689 -26.35,12.808 C 23.237,137.924 17.267,134 11.794,129.978 -20.178,106.482 -46.083,75.801 -70.719,44.699 c -50.592,-63.873 -97.239,-130.87 -139.586,-200.484 20.029,21.315 41.287,41.475 63.632,60.348 -2.296,7.073 -4.592,14.145 -6.889,21.218 8.176,-4.673 15.664,-10.547 22.148,-17.375 -4.007,9.66 -5.974,20.161 -5.733,30.615 7.054,-5.558 13.211,-12.252 18.162,-19.745 12.504,17.483 28.974,32.111 47.811,42.463 -6.66,8.993 -10.954,19.724 -12.335,30.83 9.531,-6.701 19.063,-13.401 28.595,-20.102 9.781,4.92 19.562,9.84 29.343,14.76 C -30.456,0 -35.34,12.774 -40.225,25.548 -29.274,16.646 -19.794,5.938 -12.285,-6.011 -8.19,-4.007 -4.095,-2.004 0,0" /></g><g
             transform="translate(691.7085,1373.3735)"
             id="g220"><path
               inkscape:connector-curvature="0"
               id="path222"
               style="fill:#5b8a3d;fill-opacity:1;fill-rule:nonzero;stroke:none"
               d="m 0,0 c -4.01,46.545 -35.574,89.668 -78.73,107.558 1.244,-7.901 0.147,-16.157 -3.116,-23.461 -0.661,6.264 -1.323,12.528 -1.985,18.791 -0.261,2.479 -2.487,9.464 -2.487,9.464 0,0 -6.3,2.05 -10.383,2.577 -15.501,2.001 -31.903,4.021 -47.299,1.328 1.842,-6.976 2.668,-16.747 1.257,-23.821 -3.143,8.538 -7.394,16.668 -12.612,24.122 -10.409,-0.022 -25.832,-1.226 -35.299,-5.554 12.705,-12.776 19.618,-31.103 18.517,-49.087 -6.458,15.906 -15.581,30.727 -26.872,43.658 -11.917,-2.624 -23.259,-7.829 -33.019,-15.153 12.932,-10.809 23.656,-24.247 31.327,-39.254 -6.149,3.955 -12.298,7.91 -18.448,11.866 -7.891,5.075 -25.229,16.44 -25.229,16.44 0,0 -16.055,-9.732 -22.631,-18.183 12.183,-6.044 23.096,-14.632 31.835,-25.053 -10.084,4.953 -20.166,9.905 -30.249,14.857 -3.044,1.495 -6.303,3.031 -9.672,2.642 -2.902,-0.334 -5.434,-2.053 -7.8,-3.766 -23.466,-16.994 -43.537,-38.659 -58.69,-63.354 11.016,-4.573 21.338,-10.815 30.503,-18.448 -11.992,4.272 -23.983,8.545 -35.974,12.817 -3.518,-4.271 -7.046,-8.858 -9.94,-13.808 10.936,-3.619 23.016,-7.455 33.952,-11.075 -11.943,1.852 -41.754,-1.953 -41.754,-1.953 0,0 -9.212,-8.656 -13.733,-23.329 10.928,9.9 26.548,13.185 41.294,13.08 -12.769,-5.926 -43.88,-25.204 -43.88,-25.204 0,0 -5.602,-12.558 -8.497,-27.423 7.678,5.806 15.357,11.613 23.035,17.42 -9.934,-25.55 -19.869,-51.1 -29.803,-76.65 22.166,36.431 44.716,72.924 72.958,104.876 28.242,31.952 62.709,59.429 102.899,73.689 23.152,8.214 47.63,11.876 71.953,15.324 44.295,6.279 93.251,10.988 130.23,-14.191 C -12.288,7.62 -5.522,4.809 0,0" /></g><g
             transform="translate(690.0964,1382.2543)"
             id="g224"><path
               inkscape:connector-curvature="0"
               id="path226"
               style="fill:#95b73c;fill-opacity:1;fill-rule:nonzero;stroke:none"
               d="m 0,0 c -6.932,10.582 -15.781,19.802 -25.356,28.014 -3.11,2.667 -6.347,5.267 -9.654,7.818 -1.352,-2.72 -2.83,-5.377 -4.539,-7.887 0.747,3.269 1.357,6.57 1.844,9.889 -6.209,4.653 -12.706,9.052 -19.436,13.142 -0.97,-7.423 -2.936,-14.715 -5.921,-21.581 0.826,8.068 1.244,16.17 1.463,24.277 -13.6,7.858 -27.982,14.359 -42.508,18.753 -9.841,2.976 -19.959,4.595 -30.159,5.189 2.652,-12.845 4.526,-26.034 1.069,-38.564 -2.813,13.309 -6.997,26.312 -12.321,38.831 -5.32,-0.108 -10.64,-0.504 -15.943,-1.166 5.901,-13.873 9.275,-28.821 9.526,-43.896 -3.807,14.87 -8.116,30.412 -16.854,42.697 -16.107,-2.757 -31.922,-7.758 -46.666,-14.715 -0.966,-0.456 -1.886,-0.991 -2.843,-1.461 1.446,-5.467 1.963,-11.179 1.443,-16.811 -1.382,5.048 -3.629,9.844 -6.552,14.187 -1.539,-0.808 -3.12,-1.54 -4.638,-2.383 5.239,-10.608 9.298,-21.797 11.91,-33.337 -4.382,10.759 -10.224,20.898 -17.189,30.195 -8.95,-5.288 -17.549,-11.151 -25.823,-17.49 2.553,-6.785 4.405,-13.835 5.377,-21.019 -3.131,5.907 -6.736,11.548 -10.62,16.99 -6.751,-5.409 -13.282,-11.113 -19.632,-17.021 5.076,-10.778 9.708,-21.766 13.571,-33.035 -5.42,9.815 -12.111,18.915 -19.793,27.081 -5.218,-5.06 -10.351,-10.206 -15.328,-15.472 -7.386,-7.814 -14.379,-16.34 -21.178,-25.147 2.508,-4.117 4.859,-8.328 6.882,-12.705 -3.04,3.192 -6.299,6.169 -9.693,8.98 -2.767,-3.681 -5.569,-7.297 -8.225,-11.116 2.375,-3.919 4.749,-7.839 7.124,-11.758 -2.935,3.003 -6.093,5.774 -9.184,8.616 -7.817,-11.478 -15.155,-23.471 -21.887,-35.9 2.475,-2.485 4.863,-5.055 7.059,-7.789 -2.799,1.808 -5.695,3.463 -8.656,4.991 -3.329,-6.258 -6.415,-12.654 -9.443,-19.073 2.121,-2.151 4.243,-4.301 6.364,-6.452 -2.491,1.404 -5.094,2.607 -7.773,3.604 -11.07,-23.906 -20.022,-48.692 -26.333,-73.184 62.177,117.858 138.794,151.619 248.272,181.438 11.766,3.204 58.301,6.156 70.473,6.891 34.018,2.053 67.112,-12.661 94.875,-32.426 C 8.646,-26.63 3.859,-5.889 0,0" /></g><g
             transform="translate(623.6808,1401.3484)"
             id="g228"><path
               inkscape:connector-curvature="0"
               id="path230"
               style="fill:#a2c83a;fill-opacity:1;fill-rule:nonzero;stroke:none"
               d="m 0,0 c -3.132,8.197 -17.184,13.222 -24.691,14.272 -21.945,3.072 -45.349,1.729 -67.334,-0.554 -22.434,-2.33 -44.853,-10.056 -65.964,-18.084 -38.292,-14.561 -73.058,-40.778 -92.757,-76.699 -1.273,-2.322 -2.502,-5.114 -1.384,-7.515 42.61,35.678 93.826,61.005 148.043,73.211 16.009,3.604 31.189,7.133 47.677,7.149 11.209,0.011 22.383,1.006 33.583,1.318 5.864,0.163 25.945,-4.567 23.142,5.929 C 0.228,-0.644 0.122,-0.319 0,0" /></g><g
             transform="translate(930.6165,1193.3096)"
             id="g232"><path
               inkscape:connector-curvature="0"
               id="path234"
               style="fill:#b7d341;fill-opacity:1;fill-rule:nonzero;stroke:none"
               d="m 0,0 c -0.694,18.554 -16.621,37.095 -27.293,51.323 -20.67,27.558 -45.879,50.426 -71.609,73.118 -15.965,14.079 -35.304,24.309 -55.923,29.593 -11.105,2.846 -38.513,8.893 -40.6,-8.938 -1.358,-11.596 7.789,-18.43 17.872,-20.636 35.471,-14.356 70.801,-29.365 101.514,-52.606 14.972,-11.33 28.618,-24.394 40.722,-38.743 5.619,-6.662 11.206,-13.579 15.889,-20.941 C -15.852,6.551 -12.57,-1.987 -5.271,-3.567 -2.969,-4.066 0.106,-2.844 0,0" /></g><g
             transform="translate(668.8257,1453.3652)"
             id="g236"><path
               inkscape:connector-curvature="0"
               id="path238"
               style="fill:#95b73c;fill-opacity:1;fill-rule:nonzero;stroke:none"
               d="m 0,0 c -19.77,27.475 -50.35,44.042 -82.201,53.587 -17.649,5.289 -35.955,8.502 -54.186,10.996 -19.097,2.612 -38.326,3.589 -57.555,2.059 -5.123,-0.407 -3.382,-8.224 1.691,-7.821 35.632,2.834 73.288,-2.852 107.494,-12.817 C -54.1,37.073 -24.911,20.999 -5.965,-5.331 -2.951,-9.52 2.984,-4.146 0,0" /></g><g
             transform="translate(703.6537,1549.808)"
             id="g240"><path
               inkscape:connector-curvature="0"
               id="path242"
               style="fill:#397b3b;fill-opacity:1;fill-rule:nonzero;stroke:none"
               d="m 0,0 c -4.028,18.917 -10.217,40.232 -26.326,52.405 -4.129,3.12 -8.511,-3.579 -4.419,-6.671 14.777,-11.166 19.652,-32.062 23.307,-49.223 4.399,-20.66 5.058,-41.966 2.562,-62.914 -0.612,-5.128 7.38,-5.545 7.987,-0.448 C 5.771,-44.534 4.68,-21.979 0,0" /></g><g
             transform="translate(942.4374,1405.6317)"
             id="g244"><path
               inkscape:connector-curvature="0"
               id="path246"
               style="fill:#6ca442;fill-opacity:1;fill-rule:nonzero;stroke:none"
               d="m 0,0 c -5.335,4.624 -11.188,8.508 -17.377,11.891 -12.742,6.965 -26.749,11.131 -40.945,13.886 -29.343,5.695 -61.063,7.861 -90.651,2.949 -8.724,-1.448 -20.657,-2.935 -24.28,-12.351 -0.757,-1.969 0.484,-4.484 2.514,-5.069 0.766,-0.221 1.533,-0.409 2.299,-0.58 0.304,-1.527 1.443,-2.751 3.518,-2.609 32.306,2.22 64.843,3.862 97.014,-0.848 0.498,-0.073 0.993,-0.163 1.491,-0.24 6.294,-2.142 12.799,-3.476 19.429,-3.991 7.604,-1.965 15.091,-4.372 22.405,-7.242 6.796,-2.667 13.34,-5.893 19.671,-9.521 4.091,-2.343 10.273,-5.613 12.52,1.069 C 9.426,-7.252 3.447,-2.988 0,0" /></g><g
             transform="translate(654.4506,1356.9261)"
             id="g248"><path
               inkscape:connector-curvature="0"
               id="path250"
               style="fill:#87bc48;fill-opacity:1;fill-rule:nonzero;stroke:none"
               d="m 0,0 c -0.022,0.943 -0.14,1.84 -0.339,2.688 -0.132,1.663 -0.785,3.036 -1.842,4.104 -3.562,5.059 -10.857,6.962 -17.12,4.329 -10.687,-4.493 -20.625,-15.029 -27.065,-24.435 -0.478,-0.698 -0.677,-1.45 -0.667,-2.181 -3.211,-3.795 -6.311,-7.638 -9.4,-11.276 -9.917,-11.681 -19.485,-23.657 -28.767,-35.847 -12.997,-17.068 -25.303,-34.657 -36.997,-52.641 -6.015,-9.248 -11.823,-18.631 -17.479,-28.103 -5.276,-8.834 -11.555,-17.894 -14.319,-27.903 -0.82,-2.97 1.735,-5.407 4.215,-5.279 1.669,-1.407 4.322,-1.644 5.816,0.737 16.792,26.758 34.646,52.827 53.525,78.156 12.735,17.085 25.653,34.695 39.992,50.791 7.98,8.016 16.311,15.658 25.033,22.872 5.078,4.2 10.311,8.208 15.627,12.101 C -5.973,-9.093 0.129,-5.57 0,0" /></g><g
             transform="translate(549.6596,403.0875)"
             id="g252"><path
               inkscape:connector-curvature="0"
               id="path254"
               style="fill:#95b83d;fill-opacity:1;fill-rule:nonzero;stroke:none"
               d="m 0,0 c -2.899,30.063 -24.222,54.658 -44.519,77.023 -2.189,2.413 -4.529,4.925 -7.635,5.91 15.857,-21.737 29.083,-45.392 39.297,-70.284 -15.239,21.101 -42.811,32.547 -68.514,28.443 16.764,-7.926 33.665,-15.935 48.429,-27.154 4.928,-3.745 9.631,-7.856 15.076,-10.798 C -12.421,0.199 -6.002,-1.508 0,0" /></g><g
             transform="translate(606.3358,410.4515)"
             id="g256"><path
               inkscape:connector-curvature="0"
               id="path258"
               style="fill:#a2c83a;fill-opacity:1;fill-rule:nonzero;stroke:none"
               d="m 0,0 c -0.516,-2.778 -0.994,-5.616 -0.623,-8.417 0.272,-2.059 0.914,-4.44 -0.456,-6.001 -1.071,-1.22 -2.899,-1.329 -4.522,-1.348 -5.259,-0.062 -10.519,-0.124 -15.778,-0.186 4.086,27.113 17.462,52.738 37.37,71.593 C 8.893,37.664 3.529,19.003 0,0" /></g><g
             transform="translate(1714.6147,406)"
             id="g260"><path
               inkscape:connector-curvature="0"
               id="path262"
               style="fill:#cd952d;fill-opacity:1;fill-rule:nonzero;stroke:none"
               d="m 0,0 c 0,-12.979 -32.234,-23.5 -71.996,-23.5 -39.763,0 -71.997,10.521 -71.997,23.5 0,12.979 32.234,23.5 71.997,23.5 C -32.234,23.5 0,12.979 0,0" /></g><g
             transform="translate(1564.6949,470.2117)"
             id="g264"><path
               inkscape:connector-curvature="0"
               id="path266"
               style="fill:#5c923b;fill-opacity:1;fill-rule:nonzero;stroke:none"
               d="m 0,0 c 7.617,-10.284 13.358,-21.952 16.856,-34.262 -17.047,10.131 -36.124,16.829 -55.762,19.58 27.187,-17.157 54.375,-34.315 81.562,-51.473 C 46.524,-26.041 37.224,15.236 16.527,49.816 21.503,22.955 24.3,-4.309 24.88,-31.62 19.74,-19.043 11.015,-7.955 0,0" /></g><g
             transform="translate(1673.2002,408.0875)"
             id="g268"><path
               inkscape:connector-curvature="0"
               id="path270"
               style="fill:#95b83d;fill-opacity:1;fill-rule:nonzero;stroke:none"
               d="m 0,0 c 2.899,30.063 24.223,54.658 44.519,77.023 2.189,2.413 4.529,4.925 7.635,5.91 C 36.297,61.196 23.071,37.541 12.857,12.649 28.096,33.75 55.668,45.196 81.371,41.092 64.607,33.166 47.706,25.157 32.942,13.938 28.015,10.193 23.311,6.082 17.866,3.14 12.421,0.199 6.002,-1.508 0,0" /></g><g
             transform="translate(1604.6663,431.9075)"
             id="g272"><path
               inkscape:connector-curvature="0"
               id="path274"
               style="fill:#bb6745;fill-opacity:1;fill-rule:nonzero;stroke:none"
               d="m 0,0 c -0.39,-10.651 -0.103,-19.566 0.404,-26.535 8.369,-1.937 16.482,-4.926 24.954,-6.428 8.205,-1.456 16.811,-0.68 24.992,0.703 11.155,1.887 22.462,4.933 32.273,10.569 -0.596,7.35 -1.635,20.181 -3.045,37.585 -26.288,324.476 -90.953,653.355 -224.037,950.136 -3.163,7.053 -4.849,10.813 -4.849,10.813 l -32.273,-17.094 c 0,0 1.51,-3.575 4.341,-10.278 2.713,-6.475 7.103,-16.575 11.532,-29.599 C -42.278,556.942 6.325,172.89 0,0" /></g><g
             transform="translate(1532.8392,1015.5635)"
             id="g276"><path
               inkscape:connector-curvature="0"
               id="path278"
               style="fill:#b05434;fill-opacity:1;fill-rule:nonzero;stroke:none"
               d="M 0,0 C -0.06,-0.007 -0.113,-0.029 -0.172,-0.038 -0.175,-0.021 -0.179,-0.004 -0.183,0.013 -0.097,0.012 -0.012,0.01 0.074,0.01 0.049,0.007 0.025,0.003 0,0" /></g><g
             transform="translate(1591.2982,672.2386)"
             id="g280"><path
               inkscape:connector-curvature="0"
               id="path282"
               style="fill:#b05434;fill-opacity:1;fill-rule:nonzero;stroke:none"
               d="M 0,0 C -0.059,0.514 -0.118,1.027 -0.177,1.542 0.329,1.288 0.882,1.087 1.478,0.931 0.913,0.732 0.422,0.407 0,0" /></g><g
             transform="translate(1532.6677,1015.5251)"
             id="g284"><path
               inkscape:connector-curvature="0"
               id="path286"
               style="fill:#a34b2f;fill-opacity:1;fill-rule:nonzero;stroke:none"
               d="m 0,0 c 27.556,-123.379 46.759,-240.578 58.453,-341.745 0.507,-0.253 1.059,-0.455 1.655,-0.61 -0.564,-0.199 -1.056,-0.524 -1.478,-0.931 11.321,-98.42 15.518,-181.574 13.369,-240.331 -0.39,-10.652 -0.103,-19.566 0.403,-26.536 8.369,-1.936 16.482,-4.926 24.954,-6.428 3.227,-0.572 6.515,-0.791 9.815,-0.772 1.155,12.154 0.706,24.535 0.416,36.733 -0.44,18.578 -1.232,37.144 -2.375,55.695 -0.034,0.557 -0.16,1.029 -0.328,1.456 0.044,3.486 -1.066,7.91 -1.323,10.691 -0.408,4.423 -0.823,8.845 -1.23,13.268 -0.817,8.862 -1.626,17.726 -2.29,26.602 -1.374,18.371 -2.337,36.842 -1.687,55.255 0.642,18.169 2.478,36.579 7.22,54.03 3.445,12.677 8.787,25.329 19.721,31.858 -0.45,3.129 -0.899,6.258 -1.357,9.386 -0.493,-0.055 -0.998,-0.182 -1.512,-0.447 -1.202,-0.621 -2.341,-1.326 -3.448,-2.073 -0.925,0.232 -1.963,0.122 -3.038,-0.539 -9.55,-5.872 -19.693,-10.232 -30.225,-13.03 0.068,0.188 0.144,0.361 0.205,0.562 1.007,3.31 -0.987,9.246 -1.475,12.625 -0.591,4.1 -1.188,8.198 -1.778,12.298 -1.184,8.214 -2.36,16.431 -3.401,24.667 -2.156,17.047 -3.934,34.21 -4.207,51.41 -0.269,16.972 0.562,34.237 4.144,50.772 2.532,11.683 6.731,23.45 16.04,30.255 -0.596,2.985 -1.201,5.969 -1.805,8.952 -0.164,-0.071 -0.327,-0.129 -0.49,-0.226 -1.09,-0.646 -2.118,-1.368 -3.113,-2.127 -0.871,0.164 -1.833,0.002 -2.802,-0.675 -10.667,-7.449 -22.292,-12.784 -34.52,-15.897 -0.091,3.313 -1.506,7.578 -1.944,10.254 -0.669,4.086 -1.344,8.171 -2.012,12.257 -1.339,8.188 -2.671,16.379 -3.868,24.591 -2.479,16.999 -4.583,34.121 -5.182,51.316 -0.592,16.966 -0.09,34.249 3.177,50.864 2.162,10.997 5.782,22.101 13.77,29.229 -0.786,2.998 -1.569,5.996 -2.366,8.989 C 53.585,21.285 53.094,20.91 52.61,20.525 51.736,20.669 50.778,20.486 49.822,19.787 36.832,10.292 22.323,3.971 6.953,1.084 c 1.751,0.841 3.12,2.342 3.773,5.042 0.817,3.373 -1.507,9.168 -2.185,12.51 -0.822,4.055 -1.649,8.108 -2.469,12.163 -1.645,8.125 -3.283,16.253 -4.787,24.408 -3.114,16.882 -5.858,33.904 -7.103,51.064 -1.228,16.933 -1.376,34.232 1.263,50.986 1.511,9.593 4.107,19.317 9.772,26.61 -1.17,3.457 -2.356,6.907 -3.542,10.358 -0.155,-0.096 -0.311,-0.185 -0.466,-0.308 -8.812,-7.034 -18.426,-12.543 -28.614,-16.449 -6.061,15.887 -10.618,32.433 -13.19,49.392 -2.415,15.92 -3.113,38.325 14.017,44.494 0.07,0.026 0.13,0.058 0.197,0.086 -2.852,7.433 -5.748,14.847 -8.677,22.246 -8.978,5.023 -18.972,7.952 -28.98,8.047 -5.184,0.049 -12.183,0.253 -17.614,-1.727 C -48.917,199.41 -21.843,97.794 -0.011,0.051 0.074,0.051 0.16,0.049 0.245,0.049 0.221,0.046 0.196,0.041 0.172,0.038 0.111,0.031 0.059,0.01 0,0" /></g><g
             transform="translate(1529.8323,1212.7921)"
             id="g288"><path
               inkscape:connector-curvature="0"
               id="path290"
               style="fill:#702814;fill-opacity:1;fill-rule:nonzero;stroke:none"
               d="m 0,0 c -8.652,-13.873 -23.621,-21.675 -39.102,-19.652 -5.117,0.669 -6.467,-7.907 -1.336,-8.578 18.175,-2.376 36.382,6.196 46.659,22.674 C 9.08,-0.97 2.892,4.638 0,0" /></g><g
             transform="translate(1582.9233,1041.2208)"
             id="g292"><path
               inkscape:connector-curvature="0"
               id="path294"
               style="fill:#702814;fill-opacity:1;fill-rule:nonzero;stroke:none"
               d="m 0,0 c -12.563,-15.414 -31.31,-20.13 -49.683,-19.794 -5.169,0.095 -4.368,-8.594 0.737,-8.688 20.594,-0.377 41.202,5.793 55.167,22.926 C 9.63,-1.374 3.406,4.179 0,0" /></g><g
             transform="translate(1622.5837,870.7787)"
             id="g296"><path
               inkscape:connector-curvature="0"
               id="path298"
               style="fill:#702814;fill-opacity:1;fill-rule:nonzero;stroke:none"
               d="m 0,0 c -14.443,-15.083 -35.023,-21.749 -54.844,-18.253 -5.109,0.901 -6.438,-7.679 -1.337,-8.578 22.9,-4.04 45.822,3.96 62.402,21.275 C 9.917,-1.695 3.665,3.827 0,0" /></g><g
             transform="translate(1653.4216,699.7961)"
             id="g300"><path
               inkscape:connector-curvature="0"
               id="path302"
               style="fill:#702814;fill-opacity:1;fill-rule:nonzero;stroke:none"
               d="m 0,0 c -16.565,-16.258 -38.896,-23.783 -61.144,-20.116 -5.113,0.843 -6.447,-7.736 -1.337,-8.578 24.209,-3.991 49.096,3.831 67.199,21.598 C 8.484,-3.4 3.817,3.747 0,0" /></g><g
             transform="translate(1677.0649,503.4304)"
             id="g304"><path
               inkscape:connector-curvature="0"
               id="path306"
               style="fill:#702814;fill-opacity:1;fill-rule:nonzero;stroke:none"
               d="m 0,0 c -10.155,-9.089 -23.374,-12.746 -36.025,-15.754 -11.002,-2.616 -22.732,-3.831 -33.328,1.384 -4.723,2.324 -8.02,-5.579 -3.293,-7.905 11.964,-5.888 24.874,-4.982 37.358,-2.167 14.015,3.16 28.779,7.298 40.005,17.346 C 8.659,-3.569 3.977,3.56 0,0" /></g><g
             transform="translate(1618.524,414.4515)"
             id="g308"><path
               inkscape:connector-curvature="0"
               id="path310"
               style="fill:#a2c83a;fill-opacity:1;fill-rule:nonzero;stroke:none"
               d="m 0,0 c 0.516,-2.778 0.994,-5.616 0.624,-8.417 -0.273,-2.059 -0.915,-4.44 0.455,-6.001 1.071,-1.22 2.899,-1.329 4.522,-1.348 5.259,-0.062 10.519,-0.124 15.778,-0.186 C 17.293,11.161 3.917,36.786 -15.991,55.641 -8.893,37.664 -3.529,19.003 0,0" /></g><g
             transform="translate(1345.8868,1600.6641)"
             id="g312"><path
               inkscape:connector-curvature="0"
               id="path314"
               style="fill:#4a893c;fill-opacity:1;fill-rule:nonzero;stroke:none"
               d="M 0,0 C 3.976,1.251 18.972,4.792 22.948,6.043 13.501,5.81 2.814,4.692 -2.122,3.891 -2.806,5.67 -3.45,7.463 -4.056,9.27 c -0.217,0.647 42.012,6.865 42.012,6.865 0,0 -43.487,-2.204 -43.874,-0.838 -2.892,10.218 -4.555,20.785 -4.929,31.397 11.035,5.903 23.19,9.701 35.622,11.13 -11.683,1.181 -24.789,-1.34 -35.463,-6.235 -1.116,3.841 0.417,15.665 2.354,22.917 1.937,7.251 7.051,17.514 7.051,17.514 0,0 21.723,2.465 29.607,1.812 -8.27,2.965 -18.108,3.833 -27.987,3.124 -1.258,8.496 14.286,26.304 14.286,26.304 0,0 15.243,1.253 22.63,-3.127 -2.019,4.729 -6.125,8.313 -10.654,10.749 15.807,18.329 40.449,28.666 64.602,27.1 -18.416,-9.33 -32.44,-26.22 -40.282,-45.317 C 43.077,93.566 41.117,72.391 43.081,51.839 47.583,4.742 73.926,-56.013 111.579,-67.606 c -31.407,-0.425 -52.191,2.654 -77.043,18.919 10.131,3.679 12.08,6.02 22.211,9.699 -11.132,-1.062 -18.553,-1.947 -29.684,-3.01 -5.134,5.206 -11.097,9.472 -15.214,14.674 8.248,2.129 17.797,5.36 25.643,8.678 C 28.765,-18.141 18.016,-19.692 9.636,-22.18 6.09,-14.975 2.246,-7.798 0,0" /></g><g
             transform="translate(1219.7749,1600.6256)"
             id="g316"><path
               inkscape:connector-curvature="0"
               id="path318"
               style="fill:#7bb241;fill-opacity:1;fill-rule:nonzero;stroke:none"
               d="m 0,0 c 1.111,-6.195 3.536,-29.333 4.647,-35.527 1.464,14.192 1.839,30.412 1.588,37.958 2.794,0.682 5.604,1.304 8.425,1.864 1.012,0.201 2.222,-64.235 2.222,-64.235 0,0 5.042,65.55 7.162,65.867 15.859,2.37 32.002,2.834 47.969,1.358 6.723,-17.659 10.078,-36.592 9.833,-55.485 4.01,17.271 2.749,37.384 -2.534,54.308 5.968,0.934 23.382,-3.63 33.87,-7.923 10.488,-4.292 24.878,-13.921 24.878,-13.921 0,0 -0.477,-33.007 -2.968,-44.688 6.028,11.816 9.215,26.384 10.049,41.315 12.964,0.253 36.652,-26.442 36.652,-26.442 0,0 -1.048,-23.069 -9.025,-33.292 7.47,2.117 13.626,7.578 18.142,13.894 24.418,-27.191 35.171,-66.079 28.191,-101.952 -10.44,29.372 -33.043,53.615 -60.14,69.024 -27.097,15.409 -58.436,22.408 -89.592,23.409 -71.398,2.295 -167.441,-25.499 -192.029,-79.667 5.39,47.119 13.99,77.655 43.117,111.755 3.567,-15.88 6.698,-19.248 10.265,-35.127 0.545,16.876 0.643,28.16 1.188,45.035 8.781,6.69 16.314,14.802 24.895,19.969 1.605,-12.761 4.612,-27.683 8.076,-40.07 2.43,12.974 2.171,29.369 0.053,42.397 C -23.595,-6.247 -12.109,-1.869 0,0" /></g><g
             transform="translate(1266.4064,1277.1168)"
             id="g320"><path
               inkscape:connector-curvature="0"
               id="path322"
               style="fill:#5c923b;fill-opacity:1;fill-rule:nonzero;stroke:none"
               d="M 0,0 C 5.826,-0.828 26.974,-5.603 32.799,-6.431 20.878,-0.626 6.79,4.743 0.085,6.825 c 0.396,2.933 0.85,5.863 1.361,8.785 0.184,1.048 57.107,-17.65 57.107,-17.65 0,0 -55.677,25.134 -55.201,27.297 3.559,16.183 8.892,32.056 15.863,47.159 17.872,1.104 35.663,-1.467 52.14,-7.534 -13.715,9.235 -31.797,14.21 -48.513,14.283 1.303,6.103 11.495,21.663 18.987,30.559 7.492,8.895 21.049,19.947 21.049,19.947 0,0 28.768,-10.646 38.124,-16.677 -8.216,9.519 -19.855,17.118 -32.649,22.535 4.387,12.711 36.213,27.558 36.213,27.558 0,0 19.852,-8.137 25.979,-19.064 0.799,7.932 -1.8,15.615 -5.732,21.964 32.52,15.405 70.437,13.888 99.405,-3.979 -29.462,-1.112 -58.752,-15.659 -81.895,-37.309 -23.143,-21.65 -40.42,-50.027 -52.374,-80.076 -27.395,-68.862 -37.172,-171.019 1.576,-211.685 -39.393,19.785 -63.107,37.584 -82.648,76.483 15.19,-1.422 19.255,0.59 34.445,-0.832 -14.601,5.736 -24.459,9.312 -39.061,15.048 -2.743,10.62 -7.177,20.462 -8.656,30.417 11.759,-2.372 25.91,-4.044 38.001,-4.49 -10.51,6.37 -24.977,11.174 -37.151,13.13 C -2.911,-24.918 -2.667,-12.376 0,0" /></g><g
             transform="translate(1521.4989,1463.7585)"
             id="g324"><path
               inkscape:connector-curvature="0"
               id="path326"
               style="fill:#579742;fill-opacity:1;fill-rule:nonzero;stroke:none"
               d="m 0,0 c -16.822,49.146 -62.456,87.201 -113.824,94.92 3.463,-8.192 4.497,-17.394 2.937,-26.15 -2.396,6.58 -4.791,13.161 -7.186,19.741 -0.949,2.605 -5.224,9.545 -5.224,9.545 0,0 -7.35,0.521 -11.896,-0.007 -17.263,-2.002 -35.503,-4.226 -51.392,-11.265 3.86,-7.032 7.374,-17.353 7.751,-25.366 -5.684,8.37 -12.453,16.001 -20.084,22.643 -11.226,-2.818 -27.544,-8.257 -36.596,-15.469 17.138,-10.374 29.518,-28.294 33.157,-47.993 -11.239,15.428 -25.061,28.97 -40.716,39.893 -12.153,-6.031 -22.994,-14.692 -31.558,-25.215 16.854,-8.191 32.033,-19.812 44.339,-33.945 -7.697,2.617 -15.394,5.234 -23.091,7.851 -9.877,3.358 -31.636,10.966 -31.636,10.966 0,0 -14.71,-14.81 -19.537,-25.694 14.767,-3.251 28.848,-9.588 41.075,-18.486 -12.209,2.636 -24.418,5.273 -36.627,7.91 -3.686,0.796 -7.615,1.578 -11.145,0.254 -3.041,-1.139 -5.312,-3.674 -7.405,-6.157 -20.759,-24.636 -36.598,-53.4 -46.32,-84.114 13.115,-1.977 25.927,-5.942 37.866,-11.718 -14.086,1.391 -28.172,2.782 -42.257,4.173 -2.649,-5.553 -5.225,-11.449 -7.018,-17.567 12.77,-0.969 26.835,-1.866 39.606,-2.835 -13.383,-1.208 -44.527,-13.316 -44.527,-13.316 0,0 -7.617,-11.813 -8.556,-28.86 9.134,13.617 25.106,21.355 41.045,25.199 -12.187,-9.822 -40.581,-38.974 -40.581,-38.974 0,0 -2.672,-15.054 -1.806,-31.871 6.726,8.327 13.452,16.654 20.178,24.98 -3.86,-30.235 -7.72,-60.47 -11.581,-90.705 14.138,45.259 28.673,90.687 50.568,132.746 21.895,42.057 51.71,80.958 91.247,107.133 22.775,15.078 48.205,25.602 73.523,35.851 46.109,18.666 97.668,36.888 144.328,19.648 C -15.305,4.923 -7.249,3.707 0,0" /></g><g
             transform="translate(1517.3751,1472.9081)"
             id="g328"><path
               inkscape:connector-curvature="0"
               id="path330"
               style="fill:#a2c83a;fill-opacity:1;fill-rule:nonzero;stroke:none"
               d="m 0,0 c -10.32,9.557 -22.343,17.129 -34.879,23.42 -4.072,2.043 -8.263,3.98 -12.516,5.844 -0.728,-3.297 -1.61,-6.561 -2.781,-9.728 -0.07,3.728 -0.299,7.453 -0.664,11.164 -7.949,3.354 -16.14,6.357 -24.5,8.964 0.947,-8.27 0.783,-16.666 -0.595,-24.876 -1.274,8.928 -2.999,17.781 -4.939,26.588 -16.783,4.827 -34.046,7.981 -50.899,8.822 -11.418,0.57 -22.771,-0.399 -33.935,-2.496 6.31,-13.148 11.872,-26.876 11.507,-41.324 -6.609,13.605 -14.615,26.513 -23.719,38.591 -5.712,-1.544 -11.345,-3.4 -16.891,-5.538 10.092,-13.385 17.746,-28.607 22.063,-44.807 -8.1,15.023 -16.921,30.637 -29.648,41.546 -16.638,-7.298 -32.36,-16.939 -46.402,-28.405 -0.919,-0.751 -1.768,-1.575 -2.675,-2.338 3.027,-5.512 5.12,-11.537 6.07,-17.753 -2.847,5.076 -6.559,9.647 -10.878,13.549 -1.443,-1.284 -2.953,-2.499 -4.365,-3.816 8.5,-10.039 15.884,-21.024 21.8,-32.773 -7.616,10.432 -16.641,19.803 -26.653,27.965 -8.237,-8.109 -15.941,-16.743 -23.168,-25.804 4.576,-6.636 8.468,-13.745 11.445,-21.236 -4.964,5.534 -10.369,10.653 -16.02,15.482 -5.832,-7.648 -11.348,-15.557 -16.613,-23.636 8.37,-10.267 16.317,-20.879 23.511,-32.002 -8.483,9.135 -18.146,17.158 -28.626,23.907 -4.273,-6.86 -8.429,-13.79 -12.386,-20.809 -5.872,-10.414 -11.129,-21.491 -16.101,-32.818 3.811,-3.77 7.479,-7.683 10.836,-11.862 -4.137,2.628 -8.452,4.965 -12.869,7.087 -1.996,-4.713 -4.05,-9.368 -5.89,-14.202 3.615,-3.591 7.229,-7.183 10.844,-10.774 -3.974,2.453 -8.125,4.595 -12.224,6.831 -5.353,-14.483 -10.051,-29.394 -13.978,-44.612 3.337,-2.017 6.604,-4.148 9.707,-6.509 -3.505,1.2 -7.074,2.208 -10.678,3.061 -1.913,-7.645 -3.526,-15.376 -5.07,-23.114 2.866,-1.751 5.733,-3.502 8.599,-5.253 -3.065,0.846 -6.196,1.446 -9.355,1.802 -5.527,-28.767 -8.532,-57.914 -8.767,-86.034 35.45,143.859 109.057,200.856 219.179,262.419 11.835,6.616 61.254,22.294 74.19,26.354 36.154,11.347 75.813,4.355 111.075,-9.519 C 16.478,-26.413 5.744,-5.318 0,0" /></g><g
             transform="translate(1536.2734,1724.9685)"
             id="g332"><path
               inkscape:connector-curvature="0"
               id="path334"
               style="fill:#7bb241;fill-opacity:1;fill-rule:nonzero;stroke:none"
               d="m 0,0 c 1.588,-6.09 9.086,-28.114 10.674,-34.203 -7.279,12.271 -14.419,26.841 -17.353,33.796 -2.824,-0.551 -5.635,-1.165 -8.431,-1.838 -1.004,-0.243 24.909,-59.252 24.909,-59.252 0,0 -32.056,57.4 -34.114,56.799 -15.391,-4.495 -30.242,-10.841 -44.119,-18.875 1.298,-18.85 6.188,-37.446 14.331,-54.496 -10.881,13.999 -18.167,32.788 -20.465,50.368 -5.809,-1.654 -19.706,-13.097 -27.429,-21.391 -7.723,-8.293 -16.752,-23.067 -16.752,-23.067 0,0 14.269,-29.767 21.428,-39.328 -10.426,8.201 -19.427,20.091 -26.442,33.297 -11.877,-5.204 -22.193,-39.371 -22.193,-39.371 0,0 10.622,-20.505 22.15,-26.442 -7.67,-1.209 -15.548,1.168 -22.296,5.009 -10.771,-34.921 -4.232,-74.736 17.142,-104.379 -2.834,31.043 7.526,62.529 25.668,87.877 18.142,25.349 43.661,44.839 71.527,58.808 63.861,32.013 162.71,47.038 207.739,8.166 -24.645,40.519 -45.252,64.638 -85.991,83.387 C 93.4,-21.046 91.97,-25.417 95.387,-41.328 87.819,-26.235 83,-16.032 75.431,-0.939 64.655,1.454 54.415,5.661 44.458,6.755 48.35,-5.503 51.875,-20.311 53.922,-33.009 46.278,-22.25 39.641,-7.255 36.102,5.46 24.041,4.219 11.777,3.38 0,0" /></g><g
             transform="translate(1390.5099,1363.9017)"
             id="g336"><path
               inkscape:connector-curvature="0"
               id="path338"
               style="fill:#d99027;fill-opacity:1;fill-rule:nonzero;stroke:none"
               d="m 0,0 c 13.802,-26.2 46.23,-36.251 72.431,-22.449 26.2,13.802 36.25,46.23 22.448,72.43 C 81.078,76.181 48.65,86.232 22.449,72.43 -3.751,58.628 -13.802,26.2 0,0" /></g><g
             transform="translate(1528.8927,1499.9983)"
             id="g340"><path
               inkscape:connector-curvature="0"
               id="path342"
               style="fill:#7bb241;fill-opacity:1;fill-rule:nonzero;stroke:none"
               d="M 0,0 C 8.06,-7.641 16.12,-15.283 24.18,-22.925 15.336,-30.506 7.922,-39.748 2.436,-50.024 c 9.58,6.528 19.64,12.352 30.07,17.41 2.258,-4.286 4.516,-8.573 6.773,-12.859 -7.339,-3.833 -13.751,-9.426 -18.546,-16.177 6.06,2.264 12.12,4.527 18.181,6.791 2.281,0.852 4.72,1.717 7.1,1.203 2.517,-0.544 4.444,-2.515 6.174,-4.422 16.003,-17.626 29.087,-37.895 38.562,-59.735 -8.859,0.44 -17.581,-6.005 -19.761,-14.604 6.293,6.227 17.329,4.802 24.265,-0.7 6.936,-5.502 10.767,-13.926 14.35,-22.022 5.486,-12.395 10.971,-24.791 16.458,-37.187 -7.137,-3.764 -14.273,-7.528 -21.41,-11.292 5.818,3.694 13.862,1.787 19.127,-2.659 5.266,-4.446 8.365,-10.882 11.204,-17.161 12.141,-26.852 22.321,-54.589 30.435,-82.919 -8.84,9.785 -17.68,19.569 -26.52,29.353 -9.193,10.174 -18.408,20.376 -26.39,31.526 -6.855,9.576 -12.775,19.818 -20.042,29.086 -8.272,10.548 -18.171,19.687 -28.023,28.776 -31.418,28.983 -62.836,57.965 -94.254,86.949 -27.191,25.083 -54.831,50.484 -87.774,67.314 -5.597,2.86 -12.211,6.805 -12.091,13.089 0.064,3.345 2.146,6.274 4.174,8.934 13.399,17.576 28.266,34.031 44.396,49.139 2.984,2.794 6.365,5.698 10.448,5.894 3.225,0.155 6.249,-1.427 9.088,-2.965 13.351,-7.232 26.701,-14.462 40.052,-21.694 -6.325,-10.294 -12.651,-20.587 -18.976,-30.882 3.926,4.966 7.851,9.932 11.778,14.897 2.73,3.454 5.655,7.056 9.754,8.664 4.098,1.609 9.682,0.322 11.24,-3.796 C -16.746,0.223 -23.705,-9.879 -27.686,-21.057 -19.69,-12.589 -10.296,-5.444 0,0" /></g><g
             transform="translate(1452.0131,1343.4519)"
             id="g344"><path
               inkscape:connector-curvature="0"
               id="path346"
               style="fill:#a2c83a;fill-opacity:1;fill-rule:nonzero;stroke:none"
               d="M 0,0 C 4.885,10.801 9.768,21.601 14.652,32.402 4.302,24.62 -4.375,14.625 -10.625,3.285 c -10.391,5.973 -21.301,11.042 -32.566,15.133 7.724,18.255 17.003,35.852 27.703,52.538 -19.94,-8.469 -36.118,-25.403 -43.668,-45.709 -2.514,10.908 -0.024,22.866 6.634,31.865 -9.581,-6.376 -16.65,-16.424 -19.415,-27.596 -10.722,7.857 -22.182,14.705 -34.18,20.427 2.807,29.432 14.945,57.905 34.236,80.31 7.109,8.256 16.319,16.189 27.213,16.139 7.335,-0.034 14.11,-3.724 20.36,-7.563 C 12.2,116.4 42.821,85.696 72.113,54.425 c 60.156,-64.219 116.345,-132.154 168.14,-203.288 -23.461,21.149 -48.14,40.946 -73.874,59.261 1.839,7.816 3.678,15.633 5.518,23.45 -8.382,-5.759 -15.915,-12.75 -22.283,-20.678 3.449,10.754 4.627,22.231 3.433,33.461 -7.094,-6.613 -13.122,-14.367 -17.781,-22.873 -15.019,17.697 -34.052,31.968 -55.249,41.425 6.364,10.275 10.026,22.207 10.52,34.283 -9.659,-8.064 -19.318,-16.126 -28.978,-24.19 -10.965,4.421 -21.931,8.842 -32.898,13.262 4.116,14.184 8.231,28.368 12.346,42.551 C 30.017,20.53 20.772,8.159 13.759,-5.371 Z" /></g><g
             transform="translate(1406.8207,1497.2266)"
             id="g348"><path
               inkscape:connector-curvature="0"
               id="path350"
               style="fill:#5b8a3d;fill-opacity:1;fill-rule:nonzero;stroke:none"
               d="m 0,0 c 0.156,50.45 30.272,99.68 75.118,122.791 -0.632,-8.615 1.285,-17.402 5.45,-24.971 0.151,6.8 0.304,13.6 0.457,20.4 0.06,2.691 1.83,10.407 1.83,10.407 0,0 6.598,2.77 10.944,3.702 16.504,3.539 33.975,7.178 50.785,5.656 -1.358,-7.672 -1.374,-18.261 0.776,-25.749 2.62,9.47 6.468,18.599 11.418,27.087 11.204,0.907 27.91,0.99 38.485,-2.823 -12.532,-14.885 -18.334,-35.226 -15.542,-54.482 5.53,17.696 14.023,34.461 25.019,49.387 13.06,-1.76 25.731,-6.348 36.889,-13.357 -12.951,-12.789 -23.292,-28.209 -30.207,-45.046 6.265,4.807 12.53,9.613 18.794,14.419 8.039,6.168 25.683,19.948 25.683,19.948 0,0 18.147,-9.039 25.98,-17.546 -12.571,-7.594 -23.548,-17.811 -32.021,-29.807 10.408,6.231 20.817,12.462 31.226,18.692 3.142,1.881 6.513,3.825 10.173,3.708 3.152,-0.101 6.031,-1.724 8.73,-3.356 26.774,-16.192 50.309,-37.714 68.825,-62.937 -11.447,-5.906 -21.998,-13.546 -31.179,-22.581 12.523,5.67 25.047,11.34 37.57,17.01 4.167,-4.283 8.374,-8.904 11.931,-13.973 -11.445,-4.872 -24.104,-10.08 -35.549,-14.952 12.687,3.06 45.11,1.629 45.11,1.629 0,0 10.687,-8.492 16.864,-23.88 -12.646,9.679 -29.749,11.818 -45.61,10.387 14.273,-5.237 49.477,-23.203 49.477,-23.203 0,0 7.151,-13.015 11.595,-28.754 -8.782,5.563 -17.565,11.126 -26.347,16.689 12.974,-26.609 25.949,-53.218 38.923,-79.828 -27.11,37.227 -54.639,74.485 -87.889,106.348 -33.25,31.863 -72.799,58.355 -117.326,70.109 -25.65,6.771 -52.321,8.525 -78.806,10.062 C 109.344,43.985 56.238,44.678 18.69,14.275 12.544,9.299 5.513,5.669 0,0" /></g><g
             transform="translate(1407.762,1506.9281)"
             id="g352"><path
               inkscape:connector-curvature="0"
               id="path354"
               style="fill:#95b73c;fill-opacity:1;fill-rule:nonzero;stroke:none"
               d="m 0,0 c 6.515,12.008 15.214,22.721 24.784,32.414 3.109,3.149 6.361,6.236 9.692,9.277 1.698,-2.806 3.526,-5.534 5.59,-8.082 -1.097,3.452 -2.048,6.949 -2.868,10.477 6.266,5.563 12.865,10.878 19.742,15.881 1.707,-7.902 4.475,-15.574 8.301,-22.696 -1.61,8.609 -2.784,17.29 -3.744,25.996 13.934,9.672 28.831,17.953 44.071,23.98 10.325,4.083 21.07,6.73 31.994,8.28 -1.706,-14.061 -2.544,-28.422 2.295,-41.599 1.839,14.575 5.179,28.943 9.79,42.891 5.736,0.36 11.496,0.409 17.263,0.171 -5.112,-15.458 -7.407,-31.846 -6.329,-48.093 2.768,16.344 6.016,33.456 14.323,47.458 17.58,-1.528 35.047,-5.497 51.537,-11.667 1.079,-0.404 2.117,-0.897 3.189,-1.318 -1.067,-6.013 -1.113,-12.207 -0.05,-18.221 1.036,5.556 3.026,10.918 5.784,15.853 1.727,-0.731 3.494,-1.378 5.203,-2.149 -4.689,-11.885 -8.057,-24.29 -9.838,-36.942 3.755,11.97 9.136,23.403 15.801,34.032 10.105,-4.892 19.883,-10.433 29.354,-16.516 -2.141,-7.53 -3.505,-15.282 -3.908,-23.101 2.841,6.637 6.217,13.031 9.911,19.234 7.748,-5.218 15.287,-10.772 22.648,-16.564 -4.499,-12.052 -8.502,-24.292 -11.653,-36.765 4.957,11.047 11.344,21.439 18.882,30.914 6.068,-4.979 12.051,-10.059 17.878,-15.281 8.647,-7.75 16.936,-16.301 25.04,-25.171 -2.331,-4.656 -4.485,-9.397 -6.271,-14.288 2.986,3.707 6.227,7.201 9.629,10.53 3.306,-3.714 6.645,-7.355 9.845,-11.228 -2.206,-4.43 -4.411,-8.86 -6.616,-13.29 2.89,3.494 6.041,6.758 9.113,10.093 9.439,-11.655 18.407,-23.906 26.763,-36.681 -2.441,-2.895 -4.781,-5.874 -6.9,-9.012 2.85,2.196 5.819,4.235 8.869,6.144 4.142,-6.437 8.035,-13.045 11.868,-19.683 -2.091,-2.504 -4.183,-5.007 -6.273,-7.511 2.555,1.733 5.249,3.26 8.043,4.572 14.05,-24.738 25.9,-50.613 34.88,-76.407 C 370.184,-42.786 284.711,-13.298 164.226,9.009 151.277,11.406 100.932,10.425 87.767,10.128 50.973,9.298 16.672,-9.495 -11.44,-33.248 -6.925,-29.433 -3.626,-6.683 0,0" /></g><g
             transform="translate(1477.5325,1533.4125)"
             id="g356"><path
               inkscape:connector-curvature="0"
               id="path358"
               style="fill:#a2c83a;fill-opacity:1;fill-rule:nonzero;stroke:none"
               d="m 0,0 c 2.638,9.102 17.312,15.765 25.297,17.567 23.343,5.266 48.65,5.913 72.514,5.42 24.352,-0.503 49.171,-6.814 72.607,-13.567 42.512,-12.249 82.27,-37.357 106.68,-74.255 1.578,-2.385 3.15,-5.28 2.162,-7.964 C 230.214,-38.21 172.832,-15.529 113.392,-7.238 95.841,-4.79 79.189,-2.349 61.443,-3.805 49.379,-4.795 37.265,-4.723 25.184,-5.388 18.858,-5.737 -2.331,-12.622 -0.253,-1.075 -0.187,-0.713 -0.103,-0.355 0,0" /></g><g
             transform="translate(1165.7979,1282.0908)"
             id="g360"><path
               inkscape:connector-curvature="0"
               id="path362"
               style="fill:#b7d341;fill-opacity:1;fill-rule:nonzero;stroke:none"
               d="m 0,0 c -0.911,20.03 14.572,41.407 24.786,57.673 19.783,31.505 44.87,58.369 70.532,85.089 15.924,16.579 35.822,29.316 57.54,36.846 11.698,4.055 40.653,13.012 44.493,-5.991 2.498,-12.359 -6.735,-20.53 -17.39,-23.805 C 143.07,131.192 106.389,111.882 75.412,84.125 60.312,70.594 46.793,55.314 35.049,38.79 29.597,31.119 24.203,23.175 19.82,14.834 16.475,8.466 13.705,-1.015 5.992,-3.368 3.559,-4.11 0.14,-3.07 0,0" /></g><g
             transform="translate(1424.2987,1585.3589)"
             id="g364"><path
               inkscape:connector-curvature="0"
               id="path366"
               style="fill:#95b73c;fill-opacity:1;fill-rule:nonzero;stroke:none"
               d="m 0,0 c 18.822,31.335 50.251,51.898 83.676,65.016 18.522,7.27 37.936,12.363 57.333,16.676 20.319,4.518 40.926,7.288 61.757,7.36 5.55,0.02 4.374,-8.549 -1.121,-8.568 -38.6,-0.135 -78.618,-9.619 -114.541,-23.4 C 54.909,44.732 24.933,24.825 6.896,-5.204 4.026,-9.982 -2.84,-4.729 0,0" /></g><g
             transform="translate(1378.1981,1686.0387)"
             id="g368"><path
               inkscape:connector-curvature="0"
               id="path370"
               style="fill:#397b3b;fill-opacity:1;fill-rule:nonzero;stroke:none"
               d="m 0,0 c 2.645,20.719 7.4,44.21 23.649,58.751 4.165,3.727 9.479,-3.091 5.352,-6.784 C 14.096,38.63 10.716,15.705 8.317,-3.09 5.429,-25.718 6.623,-48.706 11.182,-71.027 12.298,-76.492 3.735,-77.655 2.626,-72.224 -2.231,-48.443 -3.073,-24.072 0,0" /></g><g
             transform="translate(1134.1021,1509.5367)"
             id="g372"><path
               inkscape:connector-curvature="0"
               id="path374"
               style="fill:#6ca442;fill-opacity:1;fill-rule:nonzero;stroke:none"
               d="m 0,0 c 5.329,5.453 11.281,10.156 17.638,14.35 13.091,8.635 27.793,14.369 42.825,18.603 31.07,8.751 65.014,13.917 97.296,11.275 9.518,-0.779 22.494,-1.313 27.233,-11.123 0.991,-2.051 -0.12,-4.869 -2.252,-5.68 -0.805,-0.306 -1.613,-0.576 -2.423,-0.829 -0.19,-1.67 -1.306,-3.09 -3.552,-3.122 C 141.798,22.975 106.635,21.835 72.433,13.891 71.904,13.769 71.379,13.627 70.85,13.5 64.268,10.632 57.386,8.615 50.297,7.468 42.29,4.674 34.446,1.415 26.832,-2.328 19.757,-5.805 13.002,-9.862 6.512,-14.332 2.319,-17.219 -4.042,-21.29 -7.057,-14.301 -9.497,-8.647 -3.443,-3.524 0,0" /></g><g
             transform="translate(1448.3876,1482.8552)"
             id="g376"><path
               inkscape:connector-curvature="0"
               id="path378"
               style="fill:#87bc48;fill-opacity:1;fill-rule:nonzero;stroke:none"
               d="m 0,0 c -0.061,1.017 -0.014,1.992 0.125,2.924 -0.007,1.8 0.573,3.337 1.615,4.581 3.381,5.763 11.063,8.462 18.038,6.188 11.903,-3.88 23.54,-14.331 31.311,-23.879 0.577,-0.708 0.858,-1.499 0.913,-2.287 3.794,-3.797 7.475,-7.656 11.124,-11.295 11.717,-11.685 23.084,-23.718 34.163,-36.008 15.512,-17.207 30.328,-35.037 44.52,-53.346 7.3,-9.416 14.389,-18.994 21.322,-28.682 6.467,-9.036 14.035,-18.226 17.904,-28.751 1.149,-3.123 -1.384,-5.974 -4.064,-6.058 -1.67,-1.663 -4.505,-2.155 -6.325,0.274 -20.463,27.297 -42.007,53.756 -64.589,79.328 -15.232,17.249 -30.708,35.047 -47.578,51.088 -9.305,7.914 -18.953,15.394 -28.985,22.379 -5.84,4.066 -11.83,7.912 -17.898,11.626 C 7.24,-9.252 0.359,-6.006 0,0" /></g><g
             transform="translate(602.169,968.3743)"
             id="g380"><path
               inkscape:connector-curvature="0"
               id="path382"
               style="fill:#ffd99c;fill-opacity:1;fill-rule:nonzero;stroke:none"
               d="M 0,0 C 8.643,-0.607 17.249,-1.49 25.75,-3.043 25.614,-3.107 25.478,-3.173 25.342,-3.237 21.121,-5.195 16.703,-6.717 12.265,-8.099 10.743,-8.573 9.21,-8.996 7.673,-9.397 5.116,-6.263 2.559,-3.13 0,0 m 156.431,-158.798 c -30.518,22.999 -59.079,48.446 -85.529,76.025 -14.846,15.479 -28.859,31.733 -42.582,48.237 3.496,-0.067 6.999,-0.01 10.5,0.181 8.336,0.455 8.38,13.457 0,13 -7.362,-0.401 -14.656,-0.192 -21.867,0.601 -0.117,0.143 -0.234,0.285 -0.351,0.427 1.364,0.418 2.724,0.851 4.075,1.316 6.003,2.065 11.837,4.692 17.466,7.615 4.426,2.299 11.008,5.167 10.456,11.179 -0.271,2.962 -1.796,5.388 -4.772,6.268 -17.539,5.182 -35.867,6.609 -54.049,7.567 -1.761,0.092 -3.145,-0.413 -4.163,-1.265 -4.036,-1.145 -7.135,-6.592 -3.567,-10.921 3.715,-4.507 7.417,-9.029 11.116,-13.554 -3.304,-0.395 -6.627,-0.658 -9.963,-0.776 -7.61,-0.27 -8.494,-10.25 -1.728,-12.768 9.34,-3.476 19.004,-5.937 28.819,-7.38 16.483,-20.034 33.224,-39.857 51.127,-58.62 27.127,-28.43 56.72,-54.496 88.094,-78.141 6.713,-5.059 13.556,6.006 6.918,11.009" /></g><g
             transform="translate(1566.3645,992.7502)"
             id="g384"><path
               inkscape:connector-curvature="0"
               id="path386"
               style="fill:#ffd99c;fill-opacity:1;fill-rule:nonzero;stroke:none"
               d="M 0,0 C -1.054,-0.594 -2.12,-1.162 -3.194,-1.712 -0.3,2.304 2.547,6.353 5.303,10.465 8.353,10.004 11.414,9.606 14.485,9.28 10.009,5.554 4.59,2.588 0,0 m 27.365,21.305 c -4.797,0.215 -9.568,0.618 -14.309,1.192 4.645,7.444 9.09,15.015 13.279,22.732 C 30.336,52.597 19.111,59.158 15.11,51.79 10.096,42.556 4.736,33.533 -0.928,24.72 c -10.758,2.119 -21.331,5.146 -31.663,9.05 -7.857,2.969 -11.219,-9.602 -3.455,-12.536 8.934,-3.376 18.069,-6.093 27.345,-8.161 -5.447,-7.893 -11.156,-15.595 -17.117,-23.097 -0.875,-0.218 -1.75,-0.437 -2.631,-0.636 -4.193,-0.947 -5.318,-4.703 -4.323,-7.89 -15.595,-18.623 -32.763,-35.939 -51.373,-51.719 -6.403,-5.43 2.84,-14.579 9.193,-9.193 20.675,17.531 39.663,36.988 56.707,58.022 9.155,2.642 17.959,6.353 26.281,11.047 9.124,5.145 20.303,12.133 24.942,21.917 2.135,4.503 -0.427,9.549 -5.613,9.781" /></g><g
             transform="translate(1098.8219,781.7626)"
             id="g388"><path
               inkscape:connector-curvature="0"
               id="path390"
               style="fill:#d65e26;fill-opacity:1;fill-rule:nonzero;stroke:none"
               d="m 0,0 c -165.576,-18.518 -366.117,53.076 -426.124,102.89 26.176,-67.446 73.22,-124.988 118.689,-180.323 42.817,-52.108 81.848,-99.218 147.021,-124.401 109.56,-42.334 222.739,-4.107 314.316,61.036 102.463,72.887 183.353,164.442 244.997,273.676 5.778,10.239 14.45,26.407 22.137,40.031 C 295.467,76.233 169.283,18.933 0,0" /></g><g
             transform="translate(1342.8179,718.0846)"
             id="g392"><path
               inkscape:connector-curvature="0"
               id="path394"
               style="fill:#c14327;fill-opacity:1;fill-rule:nonzero;stroke:none"
               d="m 0,0 c -23.263,6.917 -46.296,14.733 -69.9,20.45 -24.481,5.928 -49.668,9.97 -74.648,13.142 -25.29,3.213 -50.705,5.141 -76.207,5.114 -63.575,-0.066 -129.119,-1.252 -190.959,-17.549 -29.969,-7.898 -59.649,-17.732 -90.01,-24.033 -10.589,-2.197 -21.258,-4.214 -31.61,-7.393 -5.333,-1.638 -10.875,-3.489 -15.884,-6.178 41.958,-51.033 80.76,-96.961 144.808,-121.709 109.56,-42.334 222.739,-4.107 314.316,61.036 33.089,23.538 63.914,49.034 92.581,76.432 C 1.655,-0.47 0.825,-0.245 0,0" /></g><g
             transform="translate(1098.8219,726.0017)"
             id="g396"><path
               inkscape:connector-curvature="0"
               id="path398"
               style="fill:#f68935;fill-opacity:1;fill-rule:nonzero;stroke:none"
               d="m 0,0 c -77.359,-9.901 -156.649,4.922 -228.724,34.715 -72.075,29.794 -137.393,74.122 -197.4,123.935 26.176,-67.446 73.22,-124.987 118.689,-180.322 42.817,-52.108 81.848,-99.218 147.021,-124.401 109.56,-42.334 222.739,-4.107 314.316,61.036 102.463,72.887 183.353,164.442 244.997,273.676 5.778,10.238 14.45,26.407 22.137,40.031 C 295.467,131.994 162.763,20.831 0,0" /></g><g
             transform="translate(1098.8219,726.0017)"
             id="g400"><path
               inkscape:connector-curvature="0"
               id="path402"
               style="fill:#e87528;fill-opacity:1;fill-rule:nonzero;stroke:none"
               d="m 0,0 c -42.307,-5.415 -85.189,-3.421 -127.155,4.358 7.025,-2.809 14.086,-5.544 21.089,-8.443 11.932,-4.941 23.728,-10.141 35.264,-15.804 11.349,-3.384 22.419,-7.663 32.565,-13.573 27.943,-16.277 48.9,-58.82 18.771,-84.834 -11.825,-10.209 -26.997,-15.695 -42.121,-18.84 -16.135,-3.355 -32.743,-4.724 -49.212,-4.578 -19.85,0.176 -39.563,3.062 -59.126,6.231 -7.018,1.137 -14.017,2.385 -20.993,3.746 9.54,-5.33 19.653,-10.143 30.504,-14.336 109.56,-42.334 222.739,-4.107 314.316,61.036 102.463,72.887 183.353,164.442 244.997,273.676 5.778,10.238 14.45,26.407 22.137,40.031 C 295.467,131.994 162.763,20.831 0,0" /></g><g
             transform="translate(1098.822,707.4278)"
             id="g404"><path
               inkscape:connector-curvature="0"
               id="path406"
               style="fill:#fdb940;fill-opacity:1;fill-rule:nonzero;stroke:none"
               d="m 0,0 c 155.058,19.845 282.836,121.673 403.153,214.855 5.344,9.685 11.908,21.8 17.883,32.389 C 295.467,150.568 162.763,39.404 0,18.574 c -77.36,-9.901 -156.649,4.921 -228.724,34.715 -72.076,29.794 -137.393,74.122 -197.4,123.935 3.837,-9.885 8.133,-19.553 12.796,-29.038 C -356.855,102.653 -295.71,62.405 -228.724,34.715 -156.649,4.922 -77.36,-9.901 0,0" /></g><g
             style="fill:#ffffff"
             transform="matrix(2.5832721,0,0,2.3943161,1809.4509,1628.8063)"
             id="g408"><path
               inkscape:connector-curvature="0"
               id="path410"
               style="fill:#ffffff;fill-opacity:1;fill-rule:nonzero;stroke:none"
               d="m 0,0 c -4.682,-1.051 -9.467,-1.557 -14.251,-1.95 -0.46,-0.037 -0.757,-0.484 -0.644,-0.932 0.929,-3.679 4.677,-6.247 8.45,-7.133 4.064,-0.954 8.311,-0.486 12.475,-0.775 7.092,-0.492 14.009,-3.265 19.478,-7.809 0.566,-0.47 1.144,-1.002 1.331,-1.714 0.184,-0.705 -0.053,-1.445 -0.305,-2.129 -0.957,-2.591 -2.173,-5.086 -3.625,-7.437 1.836,-1.206 4.41,-1.163 6.204,0.106 0.828,-2.902 5.39,-3.72 7.175,-1.287 0.85,-1.556 2.11,-3.059 3.981,-3.208 0.908,-0.073 1.843,0.302 2.368,1.047 0.785,1.114 0.282,2.214 -0.13,3.247 -1.264,3.167 -1.792,6.625 -1.533,10.025 5.696,3.341 12.54,4.682 19.077,3.737 5.561,-0.805 10.782,-3.183 16.303,-4.233 5.109,-0.971 10.956,-0.54 14.816,2.807 0.366,0.317 0.209,0.925 -0.268,1.008 -5.78,1.013 -10.029,6.259 -14.83,9.868 C 65.9,0.884 52.913,-0.751 40.728,-4.419 42.532,-1.304 40.551,3.026 38.259,4.483 36.315,5.718 33.924,6.133 31.921,7.23 31.595,7.408 31.217,7.103 31.341,6.753 32.655,3.029 32.601,-1.171 31.156,-4.849 29.178,0.605 22.834,3.347 17.032,3.347 11.23,3.347 5.66,1.271 0,0" /></g><g
             style="fill:#ffffff"
             transform="matrix(2.3332763,0,0,2.7159234,204.7675,1625.9584)"
             id="g412"><path
               inkscape:connector-curvature="0"
               id="path414"
               style="fill:#ffffff;fill-opacity:1;fill-rule:nonzero;stroke:none"
               d="m 0,0 c -4.682,-1.051 -9.467,-1.557 -14.251,-1.95 -0.46,-0.037 -0.757,-0.484 -0.644,-0.932 0.929,-3.679 4.677,-6.247 8.45,-7.133 4.064,-0.954 8.311,-0.486 12.475,-0.775 7.092,-0.492 14.009,-3.265 19.478,-7.809 0.566,-0.47 1.145,-1.002 1.331,-1.714 0.184,-0.705 -0.053,-1.445 -0.305,-2.129 -0.957,-2.591 -2.173,-5.086 -3.625,-7.437 1.836,-1.206 4.41,-1.163 6.204,0.106 0.828,-2.902 5.39,-3.72 7.175,-1.287 0.85,-1.556 2.11,-3.06 3.981,-3.208 0.908,-0.073 1.843,0.301 2.368,1.047 0.785,1.114 0.282,2.214 -0.13,3.247 -1.264,3.167 -1.792,6.625 -1.533,10.024 5.696,3.342 12.54,4.683 19.077,3.737 5.561,-0.804 10.782,-3.182 16.303,-4.232 5.109,-0.971 10.956,-0.54 14.816,2.807 0.367,0.317 0.209,0.925 -0.268,1.008 -5.78,1.012 -10.029,6.259 -14.83,9.868 C 65.9,0.883 52.913,-0.751 40.728,-4.419 42.532,-1.304 40.551,3.026 38.259,4.483 36.315,5.718 33.924,6.133 31.921,7.23 31.595,7.408 31.218,7.103 31.341,6.752 32.655,3.029 32.601,-1.171 31.156,-4.849 29.179,0.605 22.834,3.347 17.032,3.347 11.23,3.347 5.66,1.271 0,0" /></g><g
             style="fill:#ffffff"
             transform="matrix(1.0324551,0,0,1.1313463,193.74156,1223.374)"
             id="g416"><path
               inkscape:connector-curvature="0"
               id="path418"
               style="fill:#ffffff;fill-opacity:1;fill-rule:nonzero;stroke:none;stroke-width:1.63666415"
               d="m -144.51185,511.79674 c -12.02054,-2.69519 -24.30642,-3.99045 -36.58902,-4.99788 -1.18092,-0.0965 -1.94418,-1.24293 -1.65427,-2.391 2.38478,-9.43153 12.00743,-16.01577 21.69724,-18.28575 10.43177,-2.44497 21.3369,-1.2462 32.02747,-1.98705 18.21179,-1.26255 35.969887,-8.37177 50.011591,-20.0193 1.452816,-1.20531 2.93839,-2.56926 3.416656,-4.3944 0.473353,-1.80715 -0.135945,-3.70425 -0.782915,-5.45907 -2.456848,-6.64148 -5.580321,-13.03929 -9.30654,-19.06585 4.713872,-3.09096 11.322793,-2.97976 15.928563,0.27148 2.125992,-7.43957 13.838605,-9.5362 18.421445,-3.3003 2.183319,-3.98881 5.418168,-7.84189 10.220487,-8.22294 2.332368,-0.18644 4.733527,0.77356 6.07988,2.68374 2.017891,2.8571 0.725589,5.67494 -0.332493,8.32598 -3.24304,8.11827 -4.600858,16.98231 -3.937509,25.69752 14.626434,8.56638 32.199448,12.00406 48.9813566,9.58198 14.2791994,-2.06227 27.6853994,-8.16079 41.8597734,-10.85108 13.117929,-2.48912 28.130908,-1.38521 38.041832,7.19426 0.940153,0.81445 0.53723,2.37301 -0.689556,2.58725 -14.83936,2.59379 -25.747765,16.04521 -38.074589,25.29521 -26.117931,19.60227 -59.4639073,15.41229 -90.749408,6.00857 4.633615,7.98581 -0.453697,19.08711 -6.33703,22.8208 -4.993952,3.16783 -11.131158,4.23086 -16.275797,7.04216 -0.835329,0.45792 -1.804965,-0.32545 -1.487212,-1.2233 3.374071,-9.54601 3.233211,-20.31205 -0.474991,-29.74194 -5.077485,13.98293 -21.368024,21.01201 -36.264714,21.01201 -14.89668,0 -29.19718,-5.32169 -43.73025,-8.5811" /></g><g
             style="fill:#ffffff"
             transform="matrix(3.0129855,0,0,2.948363,846.46286,1730.9374)"
             id="g420"><path
               inkscape:connector-curvature="0"
               id="path422"
               style="fill:#ffffff;fill-opacity:1;fill-rule:nonzero;stroke:none"
               d="m 0,0 c -3.682,-0.827 -7.446,-1.224 -11.208,-1.533 -0.362,-0.03 -0.596,-0.382 -0.507,-0.734 0.73,-2.894 3.678,-4.913 6.646,-5.61 3.196,-0.75 6.537,-0.382 9.812,-0.61 5.578,-0.387 11.018,-2.568 15.32,-6.141 0.445,-0.37 0.9,-0.789 1.046,-1.349 0.146,-0.554 -0.041,-1.136 -0.239,-1.674 -0.753,-2.038 -1.71,-4.001 -2.851,-5.85 1.444,-0.948 3.468,-0.914 4.879,0.083 0.652,-2.282 4.239,-2.925 5.643,-1.012 0.669,-1.224 1.66,-2.406 3.131,-2.523 0.715,-0.057 1.45,0.237 1.863,0.823 0.618,0.877 0.222,1.742 -0.102,2.555 -0.994,2.491 -1.41,5.21 -1.206,7.884 4.48,2.628 9.864,3.683 15.005,2.939 4.374,-0.632 8.481,-2.503 12.823,-3.328 4.018,-0.764 8.617,-0.425 11.653,2.207 0.288,0.25 0.165,0.728 -0.211,0.793 -4.546,0.796 -7.888,4.923 -11.664,7.761 -8.001,6.014 -18.215,4.729 -27.799,1.843 1.419,2.451 -0.14,5.856 -1.942,7.002 -1.53,0.972 -3.41,1.298 -4.986,2.16 -0.256,0.141 -0.553,-0.1 -0.455,-0.375 1.033,-2.929 0.99,-6.232 -0.146,-9.125 C 22.95,0.476 17.96,2.633 13.396,2.633 8.833,2.633 4.452,1 0,0" /></g></g></g></g></g></svg>